<?xml version="1.0" standalone="no"?>
<!DOCTYPE svg PUBLIC "-//W3C//DTD SVG 1.1//EN" "http://www.w3.org/Graphics/SVG/1.1/DTD/svg11.dtd" >
<svg xmlns="http://www.w3.org/2000/svg">
<metadata></metadata>
<defs>
<font id="zona_problack_italic" horiz-adv-x="1638" >
<font-face units-per-em="2048" ascent="1690" descent="-358" />
<missing-glyph horiz-adv-x="659" />
<glyph unicode="&#xfb01;" horiz-adv-x="1417" d="M-59 -369l61 308q24 0 42.5 0.5t34.5 5t27.5 6.5t22.5 12t17 15t13.5 22.5t11 26.5t9.5 35t9 40.5t10 49.5l123 649h-123l61 315h123l18 86q37 173 156.5 269t271.5 96q30 0 58.5 -2t52 -5t45.5 -7.5t38.5 -9t31 -9t25 -8t17.5 -6.5t10 -4t3 0l-59 -285q-53 2 -78 2 q-47 0 -79.5 -6.5t-50 -13.5t-29 -26.5t-14.5 -30.5t-9 -40h731l-215 -1116h-408l154 801h-324l-160 -826q-34 -176 -151.5 -271t-272.5 -95q-121 0 -204 22zM1149 1386q0 99 71 166.5t164 67.5q89 0 149 -59t60 -146q0 -100 -71.5 -167.5t-165.5 -67.5q-89 0 -148 59.5 t-59 146.5z" />
<glyph unicode="&#xfb02;" horiz-adv-x="1417" d="M-61 -371l61 308q30 0 51.5 1.5t40.5 8t30.5 11.5t22.5 21t17 27.5t13.5 40t11.5 48.5t12 63l123 645h-123l61 315h123q19 94 67 173t126 142t197 98.5t267 35.5q89 0 171 -18t157 -57t120.5 -111.5t45.5 -170.5q0 -18 -3.5 -46.5t-7.5 -50.5t-9.5 -51.5t-6.5 -35.5 l-200 -1026h-408l193 995q14 77 14 129q0 129 -129 129q-35 0 -61 -4.5t-52.5 -18t-45 -41.5t-27.5 -71h237l-61 -315h-238l-160 -830q-34 -178 -153.5 -273t-278.5 -95q-108 0 -198 24z" />
<glyph unicode="&#xfb03;" horiz-adv-x="2295" d="M-59 -369l61 308q40 0 66 2.5t47 14t31.5 22t21.5 41t16 55t15 78.5l123 649h-123l61 315h123l8 35q40 175 157 271t269 96q88 0 159 -12.5t98 -25.5l26 -12l-58 -284q-72 6 -151 6q-54 0 -72.5 -17.5t-27.5 -56.5h426l18 86q37 172 155 268.5t267 96.5q33 0 63.5 -1.5 t54.5 -4.5t46.5 -6.5t39 -7.5t30.5 -8t23.5 -7.5t16 -6.5t9.5 -5l2 -2l-58 -285q-31 2 -80 2q-52 0 -86.5 -8.5t-53 -26.5t-26.5 -36t-14 -48h778l-217 -1116h-405l151 801h-370l-150 -787q-34 -176 -151 -271t-273 -95q-125 0 -211 22l62 307q31 0 52.5 1.5t40.5 8 t30.5 11.5t22.5 22t17 27.5t13.5 40t11.5 48.5t12 63l115 602h-424l-160 -826q-34 -176 -151.5 -271t-272.5 -95q-121 0 -204 22zM2023 1389q0 99 71.5 166t166.5 67q88 0 147.5 -59.5t59.5 -145.5q0 -100 -71.5 -167.5t-166.5 -67.5q-89 0 -148 60t-59 147z" />
<glyph unicode="&#xfb04;" horiz-adv-x="2248" d="M-61 -371l61 308q30 0 51.5 1.5t40.5 8t30.5 11.5t22.5 21t17 27.5t13.5 40t11.5 48.5t12 63l123 645h-123l61 315h123l8 31q43 176 159 272.5t267 96.5q81 0 151.5 -12.5t101.5 -25.5l30 -12l-58 -284q-72 6 -151 6q-87 0 -100 -72h426l2 12q21 92 69 169t126 138 t195 95.5t263 34.5q73 0 140.5 -11t132.5 -37.5t113 -66.5t77.5 -102.5t29.5 -141.5q0 -32 -10 -94l-217 -1114h-405l190 997q12 68 12 115q0 80 -31 110.5t-96 30.5q-71 0 -117.5 -28t-66.5 -107h238l-64 -315h-237l-152 -791q-34 -176 -150.5 -271t-271.5 -95 q-125 0 -211 22l62 307q31 0 52.5 1.5t40.5 8t30.5 11.5t22.5 22t17 27.5t13.5 40t11.5 48.5t12 63l115 606h-424l-160 -830q-34 -176 -151.5 -271t-272.5 -95q-120 0 -206 22z" />
<glyph horiz-adv-x="2048" />
<glyph horiz-adv-x="2048" />
<glyph unicode="&#xd;" horiz-adv-x="2048" />
<glyph unicode=" "  horiz-adv-x="659" />
<glyph unicode="&#x09;" horiz-adv-x="659" />
<glyph unicode="&#xa0;" horiz-adv-x="659" />
<glyph unicode="!" horiz-adv-x="681" d="M168 182q0 99 70.5 166.5t164.5 67.5q89 0 148 -58t59 -145q0 -100 -70.5 -166.5t-166.5 -66.5q-88 0 -146.5 58t-58.5 144zM303 541l107 901h421l-241 -901h-287z" />
<glyph unicode="&#x22;" horiz-adv-x="1136" d="M201 688l192 746h441l-418 -746h-215zM741 688l195 746h440l-418 -746h-217z" />
<glyph unicode="#" horiz-adv-x="1449" d="M117 291l65 332h244l76 213h-217l67 331h273l102 285h293l-100 -285h213l100 285h295l-101 -285h187l-68 -331h-241l-74 -213h213l-64 -332h-270l-111 -309h-294l110 309h-211l-110 -309h-297l112 309h-192zM723 623h213l74 213h-213z" />
<glyph unicode="$" horiz-adv-x="1368" d="M111 119l213 307q161 -87 364 -100l41 225q-80 21 -138.5 41t-116.5 51t-94 68.5t-58.5 91t-22.5 119.5q0 226 168.5 375.5t439.5 164.5l17 80h172l-17 -84q205 -18 437 -115l-232 -315q-161 63 -274 80l-41 -211q217 -55 324.5 -140.5t107.5 -236.5t-80.5 -270 t-217.5 -187t-310 -81l-25 -127h-172l25 127q-154 5 -265.5 34t-244.5 103zM735 1018q0 -25 15 -42.5t57 -33.5l35 176q-41 -6 -74 -30.5t-33 -69.5zM858 326q41 8 74 32t33 66q0 52 -74 80z" />
<glyph unicode="%" horiz-adv-x="1841" d="M266 969q0 106 37 199t99.5 157.5t146.5 101.5t176 37q136 0 220.5 -85t84.5 -232q0 -92 -33 -181t-91 -160.5t-146.5 -115t-190.5 -43.5q-137 0 -220 86.5t-83 235.5zM274 0l1268 1436h291l-1268 -1436h-291zM532 1016q0 -52 23 -84.5t61 -32.5q59 0 101.5 64t42.5 137 q0 51 -22.5 84t-59.5 33q-61 0 -103.5 -67t-42.5 -134zM1094 295q0 97 33 187t91 159t145 110.5t189 41.5q135 0 219 -85t84 -233q0 -93 -33 -182t-91 -158.5t-146 -112t-190 -42.5q-134 0 -217.5 84t-83.5 231zM1360 342q0 -50 23 -82.5t59 -32.5q60 0 102.5 64t42.5 137 q0 52 -23 84.5t-61 32.5q-61 0 -102 -65t-41 -138z" />
<glyph unicode="&#x26;" horiz-adv-x="1431" d="M117 356q0 154 99.5 270.5t266.5 192.5q-45 73 -45 170q0 135 72 246t193.5 173t265.5 62q162 0 269.5 -89t107.5 -238q0 -143 -102.5 -260t-254.5 -178l113 -142q23 23 49.5 55.5t61.5 77.5l42 54l273 -82q-65 -123 -254 -316l131 -164l-285 -211l-110 142 q-225 -142 -428 -142q-212 0 -338.5 96.5t-126.5 282.5zM526 424q0 -59 48 -99t120 -40q83 0 148 49l-191 252q-50 -24 -87.5 -66.5t-37.5 -95.5zM776 1016q0 -32 15 -60t30 -40l15 -13q62 4 110.5 60t48.5 116q0 50 -22.5 82.5t-57.5 32.5q-53 0 -96 -58.5t-43 -119.5z" />
<glyph unicode="'" horiz-adv-x="595" d="M199 688l192 746h449l-420 -746h-221z" />
<glyph unicode="(" horiz-adv-x="919" d="M199 436q0 141 44 276t118.5 246.5t176.5 211.5t214.5 176t236.5 135l94 -211q-231 -152 -367 -364t-136 -457q0 -309 243 -506l-174 -213q-450 253 -450 706z" />
<glyph unicode=")" horiz-adv-x="919" d="M74 -57q105 65 194.5 151t160 189t111 226.5t40.5 250.5q0 310 -246 510l174 211q212 -127 329 -318t117 -428q0 -176 -59 -331t-168 -278t-247 -220t-312 -176z" />
<glyph unicode="*" horiz-adv-x="872" d="M256 967l225 104l-184 107l125 161l170 -125l35 232h188l-59 -232l219 123l61 -159l-225 -105l184 -106l-125 -162l-168 125l-34 -232h-187l56 232l-220 -123z" />
<glyph unicode="+" horiz-adv-x="1310" d="M248 596l63 332h359l69 360h336l-69 -360h356l-64 -332h-358l-70 -358h-335l69 358h-356z" />
<glyph unicode="," horiz-adv-x="600" d="M25 -115q108 0 156 24t73 73q-63 14 -100 60t-37 112q0 103 79.5 182.5t188.5 79.5q80 0 127 -51t47 -150q0 -216 -136.5 -350t-371.5 -144z" />
<glyph unicode="-" horiz-adv-x="835" d="M180 516l64 332h674l-64 -332h-674z" />
<glyph unicode="." horiz-adv-x="600" d="M113 182q0 99 70.5 166.5t164.5 67.5q88 0 147.5 -58.5t59.5 -144.5q0 -101 -71.5 -168.5t-166.5 -67.5q-87 0 -145.5 59t-58.5 146z" />
<glyph unicode="/" horiz-adv-x="1110" d="M-129 -262l1274 1896h332l-1276 -1896h-330z" />
<glyph unicode="0" horiz-adv-x="1495" d="M201 545q0 136 35.5 268.5t106.5 249.5t169.5 206t232.5 141t287 52q249 0 396 -149t147 -416q0 -130 -37.5 -261.5t-111 -249t-172.5 -208.5t-231.5 -144.5t-277.5 -53.5q-134 0 -239 43.5t-171 121t-100 179t-34 221.5zM633 602q0 -110 50.5 -180t135.5 -70 q69 0 132 48.5t104 121t65.5 153.5t24.5 150q0 116 -51 190.5t-136 74.5q-67 0 -129.5 -51.5t-104 -127.5t-66.5 -159t-25 -150z" />
<glyph unicode="1" horiz-adv-x="870" d="M274 1325l562 119h186l-281 -1444h-419l202 1053l-229 -49z" />
<glyph unicode="2" horiz-adv-x="1277" d="M68 0l26 141q88 104 187.5 189.5t183 138t166.5 98t146 80.5t112.5 74.5t75.5 92t26 120.5q0 70 -43.5 118t-111.5 48q-24 0 -55 -10t-67.5 -32t-66.5 -66t-41 -103h-364l6 33q23 119 75.5 216.5t133.5 171t198 114t260 40.5q202 0 335.5 -125.5t133.5 -318.5 q0 -442 -501 -678h391l-68 -342h-1138z" />
<glyph unicode="3" horiz-adv-x="1273" d="M80 82l213 311q175 -74 409 -74q65 0 124 41t59 109q0 20 -7.5 39t-28 41.5t-66.5 36.5t-113 14h-154l-41 174l318 326h-443q15 68 40 196.5t28 145.5h1036l-33 -180l-399 -414q134 -55 205 -130.5t71 -199.5q0 -99 -27.5 -181t-78 -140t-116 -101.5t-146 -69t-164 -37.5 t-174.5 -12q-166 0 -278 22t-234 83z" />
<glyph unicode="4" horiz-adv-x="1417" d="M94 440l1057 1004h324l-166 -844h180l-66 -332h-178l-51 -268h-406l52 268h-705zM686 600h219l47 264z" />
<glyph unicode="5" horiz-adv-x="1292" d="M90 82l213 311q175 -74 408 -74q72 0 131 57.5t59 133.5q0 22 -6 41t-21 39.5t-48 32.5t-81 12q-56 0 -135.5 -6.5t-130.5 -13.5l-51 -7l-149 92l165 742h983q-20 -117 -65 -342h-633l-41 -180q105 18 248 18q180 0 277.5 -103t97.5 -278q0 -121 -35 -218.5t-97 -164 t-148.5 -111.5t-187 -65.5t-216.5 -20.5q-180 0 -295.5 21.5t-241.5 83.5z" />
<glyph unicode="6" horiz-adv-x="1355" d="M190 508q0 131 28 262t91 257.5t153.5 223t226.5 156t300 59.5q162 0 272 -38t207 -117l-237 -291q-110 102 -293 102q-60 0 -113 -26.5t-87.5 -67t-56.5 -85t-28 -85.5q105 82 320 82q53 0 106.5 -12t106 -40.5t92.5 -70t65 -106t25 -142.5q0 -142 -54 -255.5 t-149 -185.5t-220.5 -110t-272.5 -38q-215 0 -348.5 146.5t-133.5 381.5zM575 440q0 -64 44 -106.5t112 -42.5q83 0 154 65.5t71 153.5q0 66 -43 110t-112 44q-86 0 -156 -67t-70 -157z" />
<glyph unicode="7" horiz-adv-x="1263" d="M121 0l766 1102h-582l70 342h1110l-37 -180l-875 -1264h-452z" />
<glyph unicode="8" horiz-adv-x="1290" d="M129 356q0 247 274 416q-75 97 -75 223q0 150 79 258t211 160.5t302 52.5q131 0 230 -35t159.5 -113.5t60.5 -193.5q0 -204 -186 -352q141 -119 141 -291q0 -107 -41 -193.5t-108 -142.5t-157.5 -94.5t-184.5 -54.5t-193 -16q-150 0 -263 40t-181 126.5t-68 209.5z M539 420q0 -57 45.5 -96t115.5 -39q96 0 158 48.5t62 133.5q0 55 -48 95t-112 40q-95 0 -158 -49.5t-63 -132.5zM690 1010q0 -53 35 -85t90 -32q80 0 132 44t52 116q0 59 -38 87.5t-89 28.5q-71 0 -126.5 -44t-55.5 -115z" />
<glyph unicode="9" horiz-adv-x="1355" d="M162 133l237 291q110 -102 291 -102q61 0 115.5 27t91.5 68.5t60.5 87.5t31.5 89q-53 -41 -143 -65.5t-191 -24.5q-53 0 -106 12t-105.5 40.5t-93 69.5t-65.5 105.5t-25 142.5q0 178 93 313.5t252 206t360 70.5q214 0 344.5 -145t130.5 -381q0 -199 -49.5 -363.5 t-129.5 -272.5t-185 -182.5t-211.5 -107t-213.5 -32.5q-162 0 -277 38.5t-212 114.5zM672 934q0 -65 43.5 -109.5t111.5 -44.5q86 0 157 67t71 157q0 63 -44.5 106t-111.5 43q-83 0 -155 -65.5t-72 -153.5z" />
<glyph unicode=":" horiz-adv-x="616" d="M119 182q0 99 70.5 166.5t164.5 67.5q88 0 147.5 -58.5t59.5 -144.5q0 -101 -71 -168.5t-166 -67.5q-89 0 -147 59t-58 146zM262 887q0 99 71 166t165 67q89 0 149 -59t60 -146q0 -100 -72 -167.5t-166 -67.5q-89 0 -148 60t-59 147z" />
<glyph unicode=";" horiz-adv-x="616" d="M29 -115q107 0 156.5 25t72.5 72q-63 14 -100 60t-37 112q0 103 79.5 182.5t186.5 79.5q85 0 130.5 -51.5t45.5 -153.5q0 -212 -137 -345t-371 -145zM258 887q0 99 70.5 166t165.5 67q89 0 148.5 -59t59.5 -146q0 -100 -72 -167.5t-167 -67.5q-87 0 -146 60t-59 147z" />
<glyph unicode="&#x3c;" horiz-adv-x="1323" d="M254 627l37 184l1118 500l-74 -377l-514 -215l432 -213l-75 -377z" />
<glyph unicode="=" horiz-adv-x="1310" d="M207 301l65 334h1008l-66 -334h-1007zM319 879l66 333h1008l-66 -333h-1008z" />
<glyph unicode="&#x3e;" horiz-adv-x="1323" d="M193 129l73 377l514 213l-432 215l76 377l922 -500l-37 -184z" />
<glyph unicode="?" horiz-adv-x="1105" d="M283 182q6 100 74 167t161 67q89 0 149 -58.5t60 -144.5q-7 -103 -76.5 -169.5t-163.5 -66.5q-87 0 -145.5 59t-58.5 146zM301 1360q136 62 247 83t275 21q206 0 326.5 -100t120.5 -277q0 -217 -149 -349t-384 -138l-30 -115h-287l31 263l51 92h139q49 0 105 18.5 t101.5 61.5t45.5 98q0 44 -38 74t-85 30q-212 0 -397 -73z" />
<glyph unicode="@" horiz-adv-x="1976" d="M188 432q0 206 89 399.5t236.5 336t350 229t418.5 86.5q217 0 386.5 -99.5t261 -272t91.5 -388.5q0 -123 -34.5 -232t-102 -196.5t-178 -139t-250.5 -51.5q-102 0 -168.5 45t-87.5 119q-67 -73 -151 -114t-172 -41q-163 0 -247.5 99.5t-84.5 252.5q0 104 46.5 216 t123.5 204t186.5 151.5t224.5 59.5q86 0 145.5 -43.5t88.5 -118.5l41 121l313 -49q-25 -76 -83.5 -245t-84.5 -245q-39 -109 -39 -162q0 -88 82 -88q71 0 128.5 44t91 113t51.5 144t18 144q0 181 -80.5 324.5t-225.5 224.5t-329 81q-134 0 -267.5 -45.5t-247 -129 t-202 -192.5t-138.5 -243.5t-50 -273.5q0 -184 76 -326.5t221 -223.5t338 -81q254 0 510 176l22 -27l58 -73q-301 -219 -629 -219q-164 0 -303.5 57t-236.5 156.5t-151.5 238t-54.5 297.5zM920 555q0 -48 27 -78.5t71 -30.5q72 0 129 64.5t57 142.5q0 48 -27.5 78.5 t-72.5 30.5q-70 0 -127 -65.5t-57 -141.5z" />
<glyph unicode="A" d="M10 0l991 1444h197l432 -1444h-440l-60 231h-538l-143 -231h-439zM807 563h244l-70 285z" />
<glyph unicode="B" horiz-adv-x="1466" d="M123 0l280 1444h703q111 0 182.5 -79.5t71.5 -188.5q0 -88 -42.5 -164.5t-113.5 -104.5q140 -22 221.5 -124t81.5 -253q0 -148 -75.5 -271t-196 -191t-256.5 -68h-856zM598 342h207q71 0 128.5 16t98.5 59.5t41 110.5q0 69 -64.5 98t-224.5 29h-125zM713 946h129 q48 0 84.5 25.5t36.5 70.5q0 27 -22 43.5t-67 16.5h-133z" />
<glyph unicode="C" horiz-adv-x="1490" d="M209 606q0 170 63 326.5t174.5 276t278 190.5t360.5 71q170 0 315.5 -75t225.5 -203l-348 -264q-30 74 -101 120t-151 46q-94 0 -182.5 -62t-142.5 -163.5t-54 -209.5q0 -131 73 -217t187 -86q83 0 169 45t141 119l262 -264q-122 -127 -291 -201.5t-340 -74.5 q-134 0 -252.5 48t-203 130.5t-134 199t-49.5 248.5z" />
<glyph unicode="D" horiz-adv-x="1572" d="M123 0l276 1444h648q173 0 310 -78.5t212.5 -214.5t75.5 -305q0 -128 -43 -254t-121 -231.5t-180 -187t-228 -127.5t-256 -46h-694zM594 365h252q148 0 264.5 126.5t116.5 288.5q0 128 -71.5 213.5t-182.5 85.5h-240z" />
<glyph unicode="E" horiz-adv-x="1370" d="M123 0l280 1444h1131l-68 -342h-725l-43 -236h596l-65 -331h-596l-37 -193h768l-68 -342h-1173z" />
<glyph unicode="F" horiz-adv-x="1331" d="M123 0l280 1444h1160l-70 -342h-752l-77 -408h639l-68 -342h-639l-66 -352h-407z" />
<glyph unicode="G" horiz-adv-x="1570" d="M207 559q0 111 33.5 223t93.5 211.5t147.5 186t190.5 149t227 98t254 35.5q177 0 313.5 -55t223.5 -154l-322 -276q-43 54 -122 83.5t-173 29.5q-109 0 -211 -67.5t-164.5 -176.5t-62.5 -225q0 -128 78 -209.5t202 -81.5q103 0 222 61l8 53h-240l68 306h659l-116 -557 q-328 -213 -678 -213q-184 0 -328.5 75.5t-223.5 207.5t-79 296z" />
<glyph unicode="H" horiz-adv-x="1562" d="M123 0l280 1444h408l-131 -670h504l131 670h405l-280 -1444h-406l82 432h-504l-82 -432h-407z" />
<glyph unicode="I" horiz-adv-x="681" d="M131 0l281 1444h419l-280 -1444h-420z" />
<glyph unicode="J" horiz-adv-x="1148" d="M90 399q0 22 4 58l365 32q0 -137 119 -137q42 0 84 36t51 79l192 977h420l-168 -854q-26 -134 -74 -239t-108 -173.5t-136 -114t-154.5 -64.5t-166.5 -19q-192 0 -310 118t-118 301z" />
<glyph unicode="K" horiz-adv-x="1501" d="M123 0l280 1444h408l-109 -555l576 555h502l-762 -723l504 -721h-549l-285 414l-96 -99l-62 -315h-407z" />
<glyph unicode="L" horiz-adv-x="1265" d="M123 0l280 1444h420l-215 -1112h682l-65 -332h-1102z" />
<glyph unicode="M" horiz-adv-x="1777" d="M123 0l280 1444h197l430 -713l707 713h198l-280 -1444h-420l104 567l-426 -434l-264 434l-106 -567h-420z" />
<glyph unicode="N" horiz-adv-x="1609" d="M123 0l280 1444h197l608 -715l140 715h419l-280 -1444h-197l-610 715l-137 -715h-420z" />
<glyph unicode="O" horiz-adv-x="1697" d="M201 616q0 168 64.5 322t177 270t277 185t353.5 69q195 0 352.5 -86t245.5 -234.5t88 -330.5q0 -188 -70.5 -346t-190 -263t-277 -163.5t-332.5 -58.5q-194 0 -352 84t-247 229.5t-89 322.5zM633 657q0 -131 86 -218t217 -87q99 0 190.5 57t148 153.5t56.5 203.5 q0 138 -86.5 231t-218.5 93q-99 0 -190.5 -61.5t-147 -162.5t-55.5 -209z" />
<glyph unicode="P" horiz-adv-x="1380" d="M123 0l280 1444h621q110 0 197 -22t144.5 -60t95 -92.5t53.5 -116t16 -133.5q0 -178 -55 -314.5t-157.5 -223t-244 -130t-319.5 -43.5h-152l-59 -309h-420zM668 639h94q151 0 241.5 69t90.5 216q0 80 -54.5 130t-156.5 50h-129z" />
<glyph unicode="Q" horiz-adv-x="1697" d="M195 631q0 159 72 311.5t190 266.5t279 183.5t331 69.5q194 0 351.5 -86t246 -235t88.5 -330q0 -259 -180 -498l137 -127l-217 -223l-156 148q-211 -131 -454 -131q-194 0 -352 86t-247 235t-89 330zM625 676q0 -139 86 -231.5t219 -92.5q65 0 121 23l-70 67l213 224 l90 -84q39 96 39 184q0 137 -86.5 230.5t-216.5 93.5q-150 0 -272.5 -125t-122.5 -289z" />
<glyph unicode="R" horiz-adv-x="1478" d="M123 0l280 1444h662q139 0 243.5 -33.5t166 -92.5t92 -134.5t30.5 -165.5q0 -238 -92 -388.5t-284 -242.5l235 -387h-498l-163 307q-37 2 -107 2h-86l-59 -309h-420zM668 637h159q316 0 316 287q0 82 -47 130t-146 48h-196z" />
<glyph unicode="S" horiz-adv-x="1337" d="M104 119l197 307q117 -59 232 -81.5t249 -22.5q37 0 69.5 6.5t62.5 31t30 64.5q0 36 -45 63.5t-166 55.5q-90 21 -153.5 41t-129 51.5t-105 70t-64.5 95t-25 127.5q0 113 39.5 209.5t117 171.5t203 118t285.5 43q114 0 225.5 -20t177 -41.5t154.5 -56.5l-217 -318 q-236 94 -412 94q-51 0 -95 -28t-44 -80q0 -38 45 -63t170 -54q91 -24 160 -50t129 -61.5t97.5 -79t59 -102t21.5 -129.5q0 -112 -35.5 -199.5t-95 -143.5t-144 -92t-177 -51t-199.5 -15q-204 0 -333 27.5t-284 111.5z" />
<glyph unicode="T" horiz-adv-x="1351" d="M256 1102l70 342h1265l-69 -342h-422l-211 -1102h-420l211 1102h-424z" />
<glyph unicode="U" horiz-adv-x="1552" d="M211 494q0 69 37 260l133 690h407q-3 2 -43.5 -204t-80 -432.5t-39.5 -270.5q0 -103 54 -148t163 -45q135 0 216 78t118 266l145 756h408l-168 -864q-27 -138 -84.5 -244t-132 -173t-172 -109.5t-196.5 -59.5t-212 -17q-255 0 -404 136.5t-149 380.5z" />
<glyph unicode="V" horiz-adv-x="1556" d="M293 1444h455l163 -758l459 758h457l-955 -1444h-188z" />
<glyph unicode="W" horiz-adv-x="2287" d="M307 1444h453l102 -668l481 668h162l219 -668l363 668h453l-863 -1444h-164l-223 774l-518 -774h-162z" />
<glyph unicode="X" horiz-adv-x="1503" d="M20 0l605 731l-303 713h464l168 -408l330 408h461l-578 -713l320 -731h-471l-180 428l-344 -428h-472z" />
<glyph unicode="Y" horiz-adv-x="1490" d="M272 1444h478l174 -524l379 524h477l-731 -959l-95 -485h-419l94 485z" />
<glyph unicode="Z" horiz-adv-x="1435" d="M80 0l33 172l862 930h-660l68 342h1255l-36 -180l-857 -922h678l-65 -342h-1278z" />
<glyph unicode="[" horiz-adv-x="958" d="M80 -260l330 1696h731l-58 -289h-395l-217 -1116h397l-57 -291h-731z" />
<glyph unicode="\" horiz-adv-x="1112" d="M268 1634h332l539 -1896h-332z" />
<glyph unicode="]" horiz-adv-x="956" d="M39 -260l57 291h396l215 1116h-396l58 289h733l-330 -1696h-733z" />
<glyph unicode="^" horiz-adv-x="1032" d="M274 1004l431 440h178l260 -440h-279l-114 210l-199 -210h-277z" />
<glyph unicode="_" horiz-adv-x="1230" d="M-61 -287l45 226h1237l-45 -226h-1237z" />
<glyph unicode="`" horiz-adv-x="1032" d="M569 1876l441 35l131 -383h-238z" />
<glyph unicode="a" horiz-adv-x="1376" d="M156 414q0 139 50.5 270.5t138.5 232t217.5 161.5t277.5 61q118 0 247 -66l7 43h407l-215 -1116h-407l8 55q-147 -75 -273 -75q-205 0 -331.5 117t-126.5 317zM563 485q0 -77 51 -118t144 -41q106 0 196 65l64 334q-69 66 -170 66q-120 0 -202.5 -93.5t-82.5 -212.5z" />
<glyph unicode="b" horiz-adv-x="1386" d="M100 0l299 1544h408l-90 -465q144 58 268 58q210 0 335.5 -116.5t125.5 -320.5q0 -143 -39 -263.5t-105 -204t-154.5 -142t-186.5 -86t-201 -27.5q-122 0 -248 60l-4 -37h-408zM584 391q68 -65 170 -65q112 0 198 83t86 212q0 78 -51 124t-143 46q-102 0 -197 -66z" />
<glyph unicode="c" horiz-adv-x="1163" d="M152 442q0 81 22 164q32 111 87 200.5t124 150.5t152 102t170.5 59.5t181.5 18.5q139 0 244.5 -63.5t160.5 -174.5l-303 -231q-19 57 -63.5 90t-106.5 33q-109 0 -186.5 -89t-77.5 -206q0 -73 49 -121.5t125 -48.5q62 0 120.5 33.5t98.5 89.5l209 -230 q-99 -111 -226.5 -176.5t-262.5 -65.5q-229 0 -373.5 132.5t-144.5 332.5z" />
<glyph unicode="d" horiz-adv-x="1386" d="M156 416q0 138 54.5 270t145.5 231t218 159.5t264 60.5q127 0 252 -58l88 465h407l-299 -1544h-407l4 35q-132 -60 -267 -60q-207 0 -333.5 119.5t-126.5 321.5zM563 485q0 -77 51 -118t144 -41q106 0 196 65l64 334q-69 66 -170 66q-119 0 -202 -96.5t-83 -209.5z" />
<glyph unicode="e" horiz-adv-x="1234" d="M152 428q0 140 50.5 269t140.5 226.5t222.5 155.5t286.5 58q144 0 246.5 -61.5t151 -161.5t48.5 -228q0 -85 -36 -237h-713q11 -76 61 -122t140 -46q109 0 223 141l213 -205q-55 -60 -101.5 -99t-112 -73t-149.5 -49.5t-194 -15.5q-222 0 -349.5 125.5t-127.5 322.5z M594 674h332q2 10 2 28q0 59 -38.5 94t-96.5 35q-59 0 -116.5 -46t-82.5 -111z" />
<glyph unicode="f" horiz-adv-x="831" d="M-61 -371l61 308q30 0 51.5 1.5t40.5 8t30.5 11.5t22.5 21t17 27.5t13.5 40t11.5 48.5t12 63l123 643h-123l61 315h123l18 86q38 175 157 270t269 95q92 0 162.5 -12.5t95.5 -24.5l25 -12l-59 -285q-31 2 -78 2t-79.5 -6.5t-50 -14t-29 -26.5t-14.5 -31t-9 -41h237 l-61 -315h-238l-160 -832q-23 -120 -90 -204t-153 -121t-185 -37q-119 0 -202 22z" />
<glyph unicode="g" horiz-adv-x="1386" d="M78 -313l131 280q215 -65 348 -65q126 0 201 47t119 145q-130 -47 -250 -47q-208 0 -336.5 112.5t-128.5 305.5q0 301 185 486.5t491 185.5q125 0 252 -54l4 33h407l-166 -858q-11 -58 -21 -101t-28 -100t-38.5 -99.5t-53 -91.5t-71 -84.5t-92.5 -70t-117.5 -55.5 t-146.5 -34t-179 -13q-130 0 -257.5 19.5t-190.5 39.5zM573 532q0 -69 54 -105t151 -36q96 0 187 60l55 282q-67 58 -172 58q-113 0 -194 -76t-81 -183z" />
<glyph unicode="h" horiz-adv-x="1298" d="M100 0l299 1544h408l-88 -448q118 41 225 41q221 0 310 -77.5t89 -260.5q0 -47 -25.5 -195t-113.5 -604h-407q125 635 125 686q0 55 -27 80t-92 25q-86 0 -152 -50l-143 -741h-408z" />
<glyph unicode="i" horiz-adv-x="626" d="M106 0l216 1118h407l-215 -1118h-408zM356 1386q0 99 70.5 166.5t165.5 67.5q89 0 148 -59t59 -146q0 -100 -71.5 -167.5t-166.5 -67.5q-87 0 -146 59.5t-59 146.5z" />
<glyph unicode="j" horiz-adv-x="630" d="M-119 -369l60 308q59 0 89.5 6.5t51 31.5t29 57t22.5 101q0 2 0.5 3.5t1 4t0.5 4.5l189 971h407l-221 -1143q-34 -176 -153 -271t-273 -95q-124 0 -203 22zM358 1386q0 99 70.5 166.5t165.5 67.5q89 0 149 -59t60 -146q0 -100 -72 -167.5t-166 -67.5q-89 0 -148 59.5 t-59 146.5z" />
<glyph unicode="k" horiz-adv-x="1232" d="M100 0l299 1544h408l-148 -753l326 327h467l-463 -442l260 -676h-448l-139 369l-105 -107l-49 -262h-408z" />
<glyph unicode="l" horiz-adv-x="626" d="M109 0l299 1544h407l-299 -1544h-407z" />
<glyph unicode="m" horiz-adv-x="1984" d="M102 0l215 1118h408l-8 -41q114 60 231 60q138 0 223 -28.5t127 -92.5q177 121 338 121q214 0 307 -75t93 -245q-3 -91 -23 -205l-119 -612h-407l119 612q6 29 6 74q0 55 -26.5 80t-92.5 25q-75 0 -156 -52q0 -29 -20 -131l-117 -608h-407l118 612q9 47 9 78 q0 54 -25.5 77.5t-89.5 23.5q-85 0 -154 -56l-141 -735h-408z" />
<glyph unicode="n" horiz-adv-x="1298" d="M100 0l215 1118h408l-8 -41q123 60 229 60q214 0 306.5 -74.5t92.5 -245.5q0 -95 -22 -205l-119 -612h-407l118 612q9 44 9 74q0 55 -27 80t-92 25q-85 0 -154 -56l-141 -735h-408z" />
<glyph unicode="o" horiz-adv-x="1339" d="M150 455q0 142 49.5 266t140 216.5t227.5 146t303 53.5q110 0 208 -38t168 -102t110.5 -151.5t40.5 -183.5q0 -135 -40.5 -249t-109.5 -192.5t-161.5 -133.5t-195.5 -81t-212 -26q-148 0 -270 64.5t-190 173t-68 237.5zM553 504q0 -74 50 -126t126 -52q110 0 187 80.5 t77 191.5q0 86 -48 139.5t-126 53.5q-101 0 -183.5 -93t-82.5 -194z" />
<glyph unicode="p" horiz-adv-x="1384" d="M29 -358l286 1476h408l-6 -39q141 58 268 58q208 0 333.5 -114t125.5 -316q0 -140 -54.5 -273t-145.5 -233t-218 -160.5t-264 -60.5q-127 0 -250 57l-76 -395h-407zM584 391q68 -65 170 -65q116 0 200 87t84 205q0 78 -51.5 125.5t-142.5 47.5q-105 0 -197 -66z" />
<glyph unicode="q" horiz-adv-x="1384" d="M156 416q0 138 54.5 270.5t145 231t217 159t263.5 60.5q126 0 251 -58l7 39h407l-287 -1476h-407l76 395q-132 -60 -267 -60q-207 0 -333.5 118.5t-126.5 320.5zM563 485q0 -159 203 -159q86 0 188 65l64 334q-72 66 -170 66q-121 0 -203 -94t-82 -212z" />
<glyph unicode="r" horiz-adv-x="897" d="M102 0l215 1118h408l-18 -104q147 113 360 125l-82 -428q-52 8 -104 8q-238 0 -273 -203l-98 -516h-408z" />
<glyph unicode="s" horiz-adv-x="1050" d="M63 88l205 285q111 -51 179.5 -70.5t158.5 -19.5q86 0 86 55q0 16 -25.5 27t-113.5 32q-82 19 -139.5 40.5t-107 54t-74.5 79.5t-25 109q0 214 136 335.5t378 121.5q132 0 232.5 -25t205.5 -68l-192 -282q-175 69 -314 69q-73 0 -73 -34q0 -27 32.5 -44t130.5 -38 q168 -38 247 -100t79 -171q0 -104 -30.5 -185.5t-81 -133t-120.5 -85t-143.5 -47t-156.5 -13.5q-160 0 -257 21t-217 87z" />
<glyph unicode="t" horiz-adv-x="888" d="M193 803l63 315h133l84 426h408l-84 -426h241l-61 -315h-244q-69 -383 -69 -420q0 -50 29.5 -62t127.5 -12q35 0 58 2l-56 -284q0 -3 -31 -13.5t-106.5 -22t-165.5 -11.5q-130 0 -210.5 70t-80.5 204q0 30 11 90l86 459h-133z" />
<glyph unicode="u" horiz-adv-x="1296" d="M154 311q0 24 38.5 226t77.5 391l39 190h408q-8 -45 -42.5 -223.5t-61.5 -322.5t-27 -154q0 -50 29 -71t96 -21q46 0 87.5 22.5t63.5 52.5l142 717h407l-215 -1118h-408l9 39q-92 -62 -224 -62q-217 0 -318 82.5t-101 251.5z" />
<glyph unicode="v" horiz-adv-x="1282" d="M233 1118h424l115 -459l283 459h424l-742 -1118h-190z" />
<glyph unicode="w" horiz-adv-x="1765" d="M240 1118h401l68 -481l292 481h193l113 -481l249 481h400l-623 -1118h-196l-148 551l-362 -551h-193z" />
<glyph unicode="x" horiz-adv-x="1208" d="M12 0l477 578l-251 540h448l88 -246l178 246h451l-463 -540l256 -578h-434l-111 246l-207 -246h-432z" />
<glyph unicode="y" horiz-adv-x="1290" d="M16 -313l131 280q77 -23 109 -31.5t101.5 -21t129.5 -12.5q109 0 180 32t117 101q-81 -55 -223 -55q-216 0 -315 82t-99 251q0 26 39 227.5t78 389.5l39 188h408q-150 -652 -150 -715q0 -45 30.5 -61t113.5 -16q103 0 151 75l141 717h408l-168 -872q-17 -87 -29.5 -140.5 t-38.5 -129t-57.5 -121.5t-84 -98t-119.5 -80.5t-163 -48t-215 -19.5q-54 0 -99.5 1.5t-76.5 2.5t-69.5 7t-53.5 7.5t-54 12t-46.5 12.5t-56 17t-58.5 18z" />
<glyph unicode="z" horiz-adv-x="1148" d="M35 0l35 184l594 619h-428l61 315h1032l-35 -184l-596 -617h457l-61 -317h-1059z" />
<glyph unicode="{" horiz-adv-x="1017" d="M147 422l60 289q79 0 131.5 5.5t93 27t62.5 41.5t41.5 73t29.5 95.5t27 133.5l4 17q13 68 38 121.5t57 90t78.5 63t92 41t110 23t119.5 11t132 2.5l-49 -246q-59 0 -102.5 -6.5t-74 -23t-50.5 -35t-34.5 -53t-22.5 -65.5t-18 -83l-24 -127q-20 -105 -70.5 -163 t-148.5 -87q69 -22 100 -63t31 -109q0 -60 -24.5 -172t-24.5 -168q0 -70 46.5 -100.5t168.5 -30.5l-49 -246q-79 0 -136.5 3t-119 12t-102.5 27t-76 46t-51.5 71t-16.5 100q0 59 22.5 167.5t22.5 163.5q0 88 -58.5 121t-214.5 33z" />
<glyph unicode="|" horiz-adv-x="741" d="M164 -262l368 1896h312l-369 -1896h-311z" />
<glyph unicode="}" horiz-adv-x="1017" d="M16 -322l50 246q58 0 100 6t72.5 22.5t49.5 34.5t33.5 52.5t22.5 65t18 83.5l25 127q20 105 72.5 164.5t148.5 87.5q-69 23 -100 62.5t-31 105.5q0 63 23.5 176t23.5 168q0 70 -45.5 100.5t-165.5 30.5l49 246q58 0 101 -1.5t92.5 -5.5t85.5 -12.5t73 -21.5t61.5 -33 t45 -46.5t30 -62.5t9.5 -81q0 -71 -21.5 -186.5t-21.5 -143.5q0 -87 57.5 -119t215.5 -32l-60 -289q-59 0 -102.5 -3t-79 -14.5t-59.5 -22t-44.5 -38t-32.5 -48t-25.5 -67.5t-20.5 -81t-21 -103l-2 -14q-13 -68 -38 -121t-57 -90t-78.5 -63t-93 -41.5t-110 -24t-119 -11 t-131.5 -2.5z" />
<glyph unicode="~" horiz-adv-x="1040" d="M170 459q33 167 125.5 264.5t202.5 97.5q70 0 173.5 -39t129.5 -39q71 0 143 113l170 -22q-29 -160 -122.5 -261.5t-203.5 -101.5q-53 0 -115.5 19.5t-113.5 39t-76 19.5q-70 0 -143 -109z" />
<glyph unicode="&#xa1;" horiz-adv-x="681" d="M152 0l241 901h287l-107 -901h-421zM373 1229q0 100 70.5 166.5t166.5 66.5q88 0 146.5 -58t58.5 -144q0 -99 -70.5 -166.5t-164.5 -67.5q-89 0 -148 58t-59 145z" />
<glyph unicode="&#xa2;" horiz-adv-x="1177" d="M197 694q0 128 53.5 245t144.5 202t214.5 139t260.5 63l39 119h254l-51 -164q135 -61 219 -178l-278 -209q-3 5 -12.5 21.5t-16.5 27t-16 19.5l-162 -518q105 32 168 125l229 -209q-97 -103 -226 -162.5t-269 -62.5l-50 -152h-256l62 199q-140 64 -223.5 196t-83.5 299z M541 700q0 -116 69 -182l162 516q-100 -34 -165.5 -129t-65.5 -205z" />
<glyph unicode="&#xa3;" horiz-adv-x="1308" d="M88 0l35 180l227 131q0 6 3.5 75t8.5 106h-180l56 290h157q46 332 223 507t429 175q143 0 249.5 -70.5t149.5 -189.5l-307 -227q-38 117 -146 117q-54 0 -95.5 -53t-60 -122.5t-18.5 -136.5h418l-57 -290h-392q-4 -56 -8 -160h523l-66 -332h-1149z" />
<glyph unicode="&#xa4;" horiz-adv-x="1992" d="M78 -229h8l25 -76l16 76h8l19 -76l24 76h8l-28 -86h-8l-19 71l-16 -71h-9zM154 45v180h61q38 0 64 -26.5t26 -63.5t-24.5 -63.5t-59.5 -26.5h-67zM201 -229h8l24 -76l17 76h8l18 -76l25 76h8l-28 -86h-9l-18 71l-16 -71h-9zM203 88h14q17 0 28 13.5t11 33.5q0 19 -12 32 t-29 13h-12v-92zM319 45v180h130v-41h-80v-24h53v-35h-53v-41h86v-39h-136zM328 -229h8l24 -76l17 76h8l18 -76l25 76h8l-28 -86h-9l-18 71l-16 -71h-9zM385 922q0 116 64.5 210t168.5 136q42 104 137 168.5t212 64.5q116 0 210 -64.5t136 -168.5q104 -42 168.5 -136 t64.5 -210q0 -117 -64.5 -212t-168.5 -137q-42 -104 -136 -168.5t-210 -64.5q-117 0 -212 64.5t-137 168.5q-104 42 -168.5 137t-64.5 212zM440 -311q0 8 9 8q8 0 8 -8t-8 -8q-9 0 -9 8zM467 59l18 37q32 -14 62 -14q20 0 20 12t-28 19q-34 7 -51 18.5t-17 38.5q0 25 18 41 t50 16q31 0 73 -14l-20 -39q-32 12 -53 12q-19 0 -19 -12q0 -11 31 -18q67 -13 67 -56q0 -28 -19.5 -43.5t-53.5 -15.5q-41 0 -78 18zM479 -231h8v-86h-8v86zM510 -231h8l51 -72v72h9v-86h-9l-51 73v-73h-8v86zM596 -231h61v-9h-26v-77h-8v77h-27v9zM635 45v180h49v-180h-49 zM678 -231h53v-9h-45v-36h41v-9h-41v-24h45v-8h-53v86zM692 602h88v141l142 -141v275h-230v-275zM692 965h230v274l-142 -141v141h-88v-274zM698 135q0 38 28.5 65t68.5 27q44 0 73 -26l-32 -33q-18 14 -41 14q-19 0 -32 -13.5t-13 -33.5q0 -22 13 -36.5t32 -14.5q12 0 28 8 v8h-32v35h83v-67q-29 -24 -79 -27q-40 0 -68.5 28t-28.5 66zM750 -231h8v-78h41v-8h-49v86zM817 -231h8v-78h41v-8h-49v86zM885 -231h8v-86h-8v86zM893 45v180h22l97 -94v94h49v-180h-23l-96 92v-92h-49zM911 -274q0 19 13 32t30 13q18 0 33 -15l-6 -6q-9 12 -27 12 q-14 0 -24 -10.5t-10 -25.5q0 -14 10.5 -24.5t25.5 -10.5q6 0 12.5 2t9.5 4l3 2v10h-20v8h28v-22q-13 -12 -33 -12t-32.5 12t-12.5 31zM1008 -231h53v-9h-45v-36h41v-9h-41v-24h45v-8h-53v86zM1010 602h71q65 0 111.5 47t46.5 113q0 69 -49 115h-180v-275zM1010 965h180 q49 46 49 114q0 66 -46.5 113t-111.5 47h-71v-274zM1079 -231h8l52 -72v72h8v-86h-8l-52 73v-73h-8v86zM1083 45v180h131v-41h-81v-24h55v-35h-55v-41h86v-39h-136zM1163 -231h62v-9h-27v-77h-8v77h-27v9zM1241 45v180h62q38 0 64 -26.5t26 -63.5t-24.5 -63.5t-59.5 -26.5 h-68zM1243 -231h25q18 0 30.5 -12.5t12.5 -30.5t-13.5 -30.5t-29.5 -12.5h-25v86zM1251 -240v-69h17q14 0 24.5 10.5t10.5 24.5q0 15 -10.5 24.5t-24.5 9.5h-17zM1290 88h15q17 0 27.5 13t10.5 34q0 19 -11.5 32t-28.5 13h-13v-92zM1329 -231h53v-9h-45v-36h41v-9h-41v-24 h45v-8h-53v86zM1397 -299l6 4q7 -14 24 -14q6 0 11.5 4.5t5.5 11.5q0 11 -17 17q-24 10 -24 24q0 9 6.5 16t15.5 7q15 0 23 -15l-6 -4q-7 10 -17 10q-5 0 -9.5 -4t-4.5 -10q0 -10 19 -16q22 -8 22 -25q0 -10 -7 -17t-18 -7q-23 0 -30 18zM1454 45v180h80q53 0 53 -39 q0 -19 -16 -32q35 -14 35 -54q0 -23 -15 -39t-41 -16h-96zM1473 -231h8v-86h-8v86zM1499 -274q0 19 13 32t30 13q18 0 33 -15l-6 -6q-9 12 -27 12q-14 0 -24.5 -10.5t-10.5 -25.5q0 -14 11 -24.5t26 -10.5q6 0 12.5 2t9.5 4l3 2v10h-21v8h29v-22q-13 -12 -33 -12t-32.5 12 t-12.5 31zM1501 84h23q30 0 30 22q0 21 -36 21h-17v-43zM1501 162h29q14 0 14 10q0 12 -12 12h-31v-22zM1593 223h56l37 -65l36 65h58l-70 -119v-59h-49v59zM1597 -231h9l51 -72v72h8v-86h-8l-51 73v-73h-9v86zM1679 -311q0 8 9 8q8 0 8 -8t-8 -8q-9 0 -9 8zM1704 -274 q0 19 13 32t30 13q18 0 33 -15l-6 -6q-9 12 -27 12q-14 0 -24.5 -10.5t-10.5 -25.5q0 -14 11 -24.5t26 -10.5q6 0 12.5 2t9.5 4l3 2v10h-21v8h29v-22q-13 -12 -33 -12t-32.5 12t-12.5 31zM1800 -231h23q13 0 22.5 -10.5t9.5 -22.5q0 -22 -18 -31l21 -22h-13l-16 18h-21v-18 h-8v86zM1808 -240v-51h15q10 1 17 9.5t7 17.5q0 10 -7.5 17t-16.5 7h-15z" />
<glyph unicode="&#xa5;" horiz-adv-x="1499" d="M182 125l49 254h383l23 104h-385l51 252h236l-260 709h477l172 -524l381 524h477l-537 -709h238l-49 -252h-385l-19 -104h383l-49 -254h-383l-22 -125h-422l24 125h-383z" />
<glyph unicode="&#xa6;" horiz-adv-x="741" d="M164 -260l151 784h312l-152 -784h-311zM379 850l153 784h312l-154 -784h-311z" />
<glyph unicode="&#xa7;" horiz-adv-x="1282" d="M154 82l200 262q184 -100 297 -100q32 0 66 7t63 26.5t29 46.5q0 25 -59.5 45.5t-144 39.5t-169 44.5t-144 74t-59.5 115.5q0 94 54 168t139 119q-27 23 -44 60.5t-17 72.5q0 115 73 207.5t189 141t250 48.5q139 0 281 -28t228 -66l-192 -283q-80 33 -187.5 58.5 t-197.5 25.5q-76 0 -76 -59q0 -19 33 -33.5t127 -34.5q23 -5 66.5 -14t66.5 -14t61 -14.5t59 -16.5t51 -19.5t46.5 -24.5t36.5 -29.5t29.5 -37t16.5 -44.5t7 -54q0 -87 -59.5 -167.5t-138.5 -100.5q26 -37 26 -84q0 -83 -31.5 -156t-84.5 -125.5t-122 -91t-144.5 -57.5 t-151.5 -19q-157 0 -254.5 22t-218.5 89zM539 739q0 -15 10 -28.5t32 -24t45 -19t60.5 -17t65.5 -14t73 -14t72 -14.5q123 17 123 74q0 29 -78 56.5t-182.5 52t-130.5 36.5q-41 -10 -65.5 -37t-24.5 -51z" />
<glyph unicode="&#xa8;" horiz-adv-x="1024" d="M422 1655q0 85 61.5 142.5t139.5 57.5q69 0 115 -43.5t46 -109.5q0 -85 -61.5 -143t-138.5 -58q-69 0 -115.5 44t-46.5 110zM872 1659q0 85 61 140.5t140 55.5q69 0 115.5 -43.5t46.5 -109.5q0 -85 -61 -143t-138 -58q-70 0 -117 46t-47 112z" />
<glyph unicode="&#xa9;" horiz-adv-x="1699" d="M229 651q0 161 68 312t182 262t270 178t324 67q141 0 263.5 -52.5t207.5 -142.5t133.5 -213t48.5 -261q0 -125 -41 -247t-117.5 -224.5t-179 -181.5t-233 -123.5t-270.5 -44.5q-188 0 -339 89.5t-234 243t-83 338.5zM336 655q0 -162 71 -293t199.5 -206.5t290.5 -75.5 q134 0 264.5 55.5t231 149t162 227.5t61.5 281q0 121 -40.5 226.5t-112 182.5t-176 121.5t-226.5 44.5q-139 0 -271.5 -56.5t-232 -151.5t-160.5 -228t-61 -277zM563 686q0 124 65.5 232t175 171.5t234.5 63.5q97 0 177 -42.5t128 -117.5l-194 -151q-19 44 -55.5 69 t-83.5 25q-85 0 -147 -74t-62 -168q0 -80 42.5 -132t110.5 -52q97 0 166 96l158 -151q-64 -73 -158 -116.5t-188 -43.5q-159 0 -264 112t-105 279z" />
<glyph unicode="&#xaa;" horiz-adv-x="1050" d="M274 948q0 130 63 244.5t171.5 183t234.5 68.5q89 0 172 -47l7 30h284l-151 -780h-285l8 39q-101 -53 -194 -53q-103 0 -175 44.5t-103.5 114t-31.5 156.5zM551 1004q0 -55 34 -92.5t101 -37.5q70 0 135 48l47 231q-47 47 -120 47q-81 0 -139 -59.5t-58 -136.5z" />
<glyph unicode="&#xab;" horiz-adv-x="1306" d="M160 545l465 532l223 -188l-328 -344l195 -342l-297 -191zM705 545l466 532l222 -188l-328 -344l197 -342l-297 -191z" />
<glyph unicode="&#xac;" horiz-adv-x="1216" d="M213 748l63 331h1051l-135 -698h-336l72 367h-715z" />
<glyph unicode="&#xad;" horiz-adv-x="835" d="M180 516l64 332h674l-64 -332h-674z" />
<glyph unicode="&#xae;" horiz-adv-x="1699" d="M229 651q0 161 68 312t182 262t270 178t324 67q141 0 263.5 -52.5t207.5 -142.5t133.5 -213t48.5 -261q0 -125 -41 -247t-117.5 -224.5t-179 -181.5t-233 -123.5t-270.5 -44.5q-188 0 -339 89.5t-234 243t-83 338.5zM336 655q0 -162 71 -293t199.5 -206.5t290.5 -75.5 q134 0 264.5 55.5t231 149t162 227.5t61.5 281q0 121 -40.5 226.5t-112 182.5t-176 121.5t-226.5 44.5q-139 0 -271.5 -56.5t-232 -151.5t-160.5 -228t-61 -277zM551 315l164 834h393q153 0 224 -66.5t71 -173.5t-44 -197.5t-118 -142.5l102 -120l-196 -166l-176 211 q-8 -2 -27 -2h-119l-34 -177h-240zM858 659h94q96 0 142.5 58t46.5 131q0 49 -26.5 79.5t-84.5 30.5h-115z" />
<glyph unicode="&#xaf;" horiz-adv-x="1024" d="M487 1540l50 246h647l-49 -246h-648z" />
<glyph unicode="&#xb0;" horiz-adv-x="966" d="M319 1067q0 102 58 196.5t155.5 153t206.5 58.5q137 0 233.5 -95t96.5 -231q0 -102 -58 -195.5t-155.5 -151t-206.5 -57.5q-140 0 -235 93t-95 229zM528 1083q0 -61 41 -102t105 -41q74 0 129 57t55 136q0 63 -41.5 104t-103.5 41q-74 0 -129.5 -58.5t-55.5 -136.5z" />
<glyph unicode="&#xb1;" horiz-adv-x="1310" d="M131 0l66 332h1050l-63 -332h-1053zM276 748l64 331h358l70 359h336l-70 -359h359l-66 -331h-356l-72 -359h-336l70 359h-357z" />
<glyph unicode="&#xb2;" horiz-adv-x="849" d="M207 612l18 101q44 59 115.5 111t138 87.5t127.5 71.5t98 79.5t37 94.5q0 40 -24.5 67t-65.5 27q-20 0 -45 -9t-53 -38.5t-35 -75.5h-211q29 152 138 244t253 92q116 0 193.5 -73t77.5 -185q0 -137 -77 -236.5t-196 -158.5h209q-19 -106 -39 -199h-659z" />
<glyph unicode="&#xb3;" horiz-adv-x="849" d="M197 662q13 18 55 81t67 97q93 -43 232 -43q41 0 73.5 25.5t32.5 64.5q0 74 -125 74h-88l-22 98l182 188h-254l39 195h594l-18 -105l-232 -237q79 -29 120.5 -70.5t41.5 -109.5q0 -75 -35 -137t-91.5 -101t-124 -60.5t-136.5 -21.5q-103 0 -169.5 13t-141.5 49z" />
<glyph unicode="&#xb4;" horiz-adv-x="1024" d="M238 1528l202 383l434 -35l-399 -348h-237z" />
<glyph unicode="&#xb5;" horiz-adv-x="1302" d="M29 -358l286 1476h408l-119 -612q-10 -52 -10 -78q0 -54 28 -78t93 -24q82 0 153 55l142 737h407l-215 -1118h-407l4 29q-96 -49 -185 -49q-50 0 -108 22l-72 -360h-405z" />
<glyph unicode="&#xb6;" horiz-adv-x="1226" d="M215 834q0 144 62 261t164.5 189.5t228.5 111t262 38.5h448l-278 -1434h-400l84 444h-43q-242 0 -385 101.5t-143 288.5zM733 956q0 -67 94 -67h52l32 172h-24q-65 0 -109.5 -24.5t-44.5 -80.5z" />
<glyph unicode="&#xb7;" horiz-adv-x="598" d="M199 627q0 99 71 166t164 67q89 0 149 -59t60 -146q0 -100 -71.5 -167.5t-165.5 -67.5q-89 0 -148 60t-59 147z" />
<glyph unicode="&#xb8;" horiz-adv-x="878" d="M119 -262q33 0 54 0.5t50.5 2t47.5 5.5t36 10.5t26.5 16.5t8.5 24q0 20 -35.5 30.5t-91.5 10.5l193 164h235l-65 -108q20 -29 20 -70q0 -97 -106 -155t-330 -58h-43v127z" />
<glyph unicode="&#xb9;" horiz-adv-x="860" d="M453 1376l319 68h109l-162 -832h-242l117 607l-131 -27z" />
<glyph unicode="&#xba;" horiz-adv-x="1038" d="M276 965q0 105 45 196.5t118 152t165 95.5t187 35q156 0 255 -94t99 -238q0 -111 -45 -204t-119 -151t-164 -90t-184 -32q-157 0 -257 94t-100 236zM555 1008q0 -56 35 -93.5t90 -37.5q78 0 132 54t54 140q0 56 -35 93.5t-90 37.5q-74 0 -130 -60.5t-56 -133.5z" />
<glyph unicode="&#xbb;" horiz-adv-x="1308" d="M119 203l327 342l-196 344l299 188l256 -532l-463 -533zM662 203l327 342l-196 344l299 188l256 -532l-463 -533z" />
<glyph unicode="&#xbc;" horiz-adv-x="1892" d="M287 0l1267 1436h291l-1267 -1436h-291zM397 1376l320 68h108l-161 -832h-242l117 607l-131 -27zM1059 254l610 580h184l-94 -488h101l-37 -190h-103l-28 -156h-232l29 156h-410zM1399 346h129l28 154z" />
<glyph unicode="&#xbd;" horiz-adv-x="1968" d="M291 0l1268 1436h290l-1267 -1436h-291zM397 1376l320 68h108l-161 -832h-242l117 607l-131 -27zM1163 0l19 100q44 59 115.5 111t138 87.5t127.5 71.5t98 80t37 95q0 40 -24.5 67t-65.5 27q-20 0 -45 -9t-53 -38.5t-35 -75.5h-211q29 152 138 244t253 92q116 0 193 -73 t77 -185q0 -137 -76.5 -236.5t-195.5 -158.5h209q-19 -106 -39 -199h-660z" />
<glyph unicode="&#xbe;" horiz-adv-x="1888" d="M197 662q13 18 55 81t67 97q93 -43 232 -43q41 0 73.5 25.5t32.5 64.5q0 74 -125 74h-88l-22 98l182 188h-254l39 195h594l-18 -105l-232 -237q79 -29 120.5 -70.5t41.5 -109.5q0 -77 -36.5 -140t-95 -101t-126.5 -58.5t-137 -20.5q-100 0 -164.5 12.5t-138.5 49.5z M283 0l1267 1436h289l-1268 -1436h-288zM1051 254l612 580h184l-96 -488h102l-38 -190h-103l-26 -156h-232l27 156h-408zM1391 346h129l28 154z" />
<glyph unicode="&#xbf;" horiz-adv-x="1105" d="M115 354q0 217 148.5 349.5t383.5 138.5l31 114h287l-31 -262l-51 -92h-140q-49 0 -105 -18.5t-101 -61.5t-45 -98q0 -44 38 -74.5t84 -30.5q211 0 398 74l71 -311q-136 -62 -247.5 -83.5t-274.5 -21.5q-206 0 -326 100t-120 277zM657 1229q7 103 76.5 169t163.5 66 q87 0 146 -59t59 -145q-6 -100 -74.5 -167t-161.5 -67q-89 0 -149 58.5t-60 144.5z" />
<glyph unicode="&#xc0;" d="M10 0l991 1444h197l432 -1444h-440l-60 231h-538l-143 -231h-439zM635 1876l440 35l131 -383h-237zM807 563h244l-70 285z" />
<glyph unicode="&#xc1;" d="M10 0l991 1444h197l432 -1444h-440l-60 231h-538l-143 -231h-439zM807 563h244l-70 285zM981 1528l203 383l434 -35l-399 -348h-238z" />
<glyph unicode="&#xc2;" d="M10 0l991 1444h197l432 -1444h-440l-60 231h-538l-143 -231h-439zM692 1528l371 342h244l237 -342h-260l-137 164l-199 -164h-256zM807 563h244l-70 285z" />
<glyph unicode="&#xc3;" d="M10 0l991 1444h197l432 -1444h-440l-60 231h-538l-143 -231h-439zM678 1513q33 167 125 265t203 98q54 0 116 -19.5t112 -39t75 -19.5q68 0 145 111l170 -21q-32 -159 -126 -260.5t-204 -101.5q-53 0 -115 19.5t-112.5 39t-75.5 19.5q-72 0 -141 -111zM807 563h244 l-70 285z" />
<glyph unicode="&#xc4;" d="M10 0l991 1444h197l432 -1444h-440l-60 231h-538l-143 -231h-439zM721 1655q0 85 61.5 142.5t139.5 57.5q69 0 115 -43.5t46 -109.5q0 -85 -61.5 -143t-138.5 -58q-69 0 -115.5 44t-46.5 110zM807 563h244l-70 285zM1171 1659q0 85 61 140.5t140 55.5q69 0 115.5 -43.5 t46.5 -109.5q0 -85 -61 -143t-138 -58q-70 0 -117 46t-47 112z" />
<glyph unicode="&#xc5;" d="M10 0l934 1360q-50 32 -78 85.5t-28 117.5q0 115 81 192.5t189 77.5q102 0 172 -69t70 -169q0 -73 -35 -133t-94 -96l409 -1366h-440l-60 231h-538l-143 -231h-439zM807 563h244l-70 285zM971 1561q0 -41 29 -71t71 -30q54 0 93.5 37.5t39.5 95.5q0 40 -30 70.5t-70 30.5 q-54 0 -93.5 -37.5t-39.5 -95.5z" />
<glyph unicode="&#xc6;" horiz-adv-x="2185" d="M-14 0l983 1444h1380l-68 -342h-725l-45 -236h598l-65 -331h-596l-37 -193h768l-68 -342h-1173l43 231h-416l-139 -231h-440zM780 563h267l96 504h-53z" />
<glyph unicode="&#xc7;" horiz-adv-x="1490" d="M209 606q0 170 63 326.5t174.5 276t278 190.5t360.5 71q170 0 315.5 -75t225.5 -203l-348 -264q-30 74 -101 120t-151 46q-94 0 -182.5 -62t-142.5 -163.5t-54 -209.5q0 -131 73 -217t187 -86q83 0 169 45t141 119l262 -264q-95 -98 -219.5 -166t-258.5 -94l-61 -102 q21 -29 21 -70q0 -97 -106 -155t-331 -58h-43v127q51 0 81.5 1.5t68 6.5t56 18t18.5 33t-35.5 30.5t-91.5 10.5l174 150q-237 31 -390 203t-153 415z" />
<glyph unicode="&#xc8;" horiz-adv-x="1370" d="M123 0l280 1444h1131l-68 -342h-725l-43 -236h596l-65 -331h-596l-37 -193h768l-68 -342h-1173zM508 1876l440 35l131 -383h-237z" />
<glyph unicode="&#xc9;" horiz-adv-x="1370" d="M123 0l280 1444h1131l-68 -342h-725l-43 -236h596l-65 -331h-596l-37 -193h768l-68 -342h-1173zM809 1528l203 383l434 -35l-399 -348h-238z" />
<glyph unicode="&#xca;" horiz-adv-x="1370" d="M123 0l280 1444h1131l-68 -342h-725l-43 -236h596l-65 -331h-596l-37 -193h768l-68 -342h-1173zM557 1528l371 342h243l238 -342h-260l-137 164l-199 -164h-256z" />
<glyph unicode="&#xcb;" horiz-adv-x="1370" d="M123 0l280 1444h1131l-68 -342h-725l-43 -236h596l-65 -331h-596l-37 -193h768l-68 -342h-1173zM594 1655q0 85 61.5 142.5t139.5 57.5q69 0 115 -43.5t46 -109.5q0 -85 -61.5 -143t-138.5 -58q-69 0 -115.5 44t-46.5 110zM1044 1659q0 85 61 140.5t140 55.5 q69 0 115.5 -43.5t46.5 -109.5q0 -85 -61 -143t-138 -58q-70 0 -117 46t-47 112z" />
<glyph unicode="&#xcc;" horiz-adv-x="681" d="M131 0l281 1444h419l-280 -1444h-420zM176 1903l440 34l132 -383h-238z" />
<glyph unicode="&#xcd;" horiz-adv-x="681" d="M131 0l281 1444h419l-280 -1444h-420zM512 1554l203 383l434 -34l-399 -349h-238z" />
<glyph unicode="&#xce;" horiz-adv-x="681" d="M131 0l281 1444h419l-280 -1444h-420zM223 1554l371 342h244l237 -342h-260l-137 164l-199 -164h-256z" />
<glyph unicode="&#xcf;" horiz-adv-x="681" d="M131 0l281 1444h419l-280 -1444h-420zM260 1681q0 85 61.5 143t139.5 58q69 0 115.5 -43.5t46.5 -109.5q0 -85 -62 -143t-139 -58q-69 0 -115.5 43.5t-46.5 109.5zM711 1686q0 85 61 140.5t139 55.5q69 0 115.5 -43.5t46.5 -109.5q0 -85 -61 -143t-138 -58 q-70 0 -116.5 45.5t-46.5 112.5z" />
<glyph unicode="&#xd0;" horiz-adv-x="1744" d="M244 557l63 328h160l111 559h647q174 0 311.5 -74t213 -203t75.5 -290q0 -189 -68.5 -354t-182.5 -278.5t-266 -179t-317 -65.5h-694l106 557h-159zM774 365h252q106 0 195 69t136.5 170.5t47.5 204.5q0 117 -70.5 193.5t-183.5 76.5h-240l-37 -194h242l-65 -328h-240z " />
<glyph unicode="&#xd1;" horiz-adv-x="1609" d="M123 0l280 1444h197l608 -715l140 715h419l-280 -1444h-197l-610 715l-137 -715h-420zM649 1513q33 167 125 265t203 98q54 0 116 -19.5t112 -39t75 -19.5q68 0 145 111l170 -21q-32 -159 -125.5 -260.5t-203.5 -101.5q-53 0 -115 19.5t-112.5 39t-75.5 19.5 q-73 0 -142 -111z" />
<glyph unicode="&#xd2;" horiz-adv-x="1697" d="M201 616q0 168 64.5 322t177 270t277 185t353.5 69q195 0 352.5 -86t245.5 -234.5t88 -330.5q0 -188 -70.5 -346t-190 -263t-277 -163.5t-332.5 -58.5q-194 0 -352 84t-247 229.5t-89 322.5zM633 657q0 -131 86 -218t217 -87q99 0 190.5 57t148 153.5t56.5 203.5 q0 138 -86.5 231t-218.5 93q-99 0 -190.5 -61.5t-147 -162.5t-55.5 -209zM672 1876l440 35l131 -383h-237z" />
<glyph unicode="&#xd3;" horiz-adv-x="1697" d="M201 616q0 168 64.5 322t177 270t277 185t353.5 69q195 0 352.5 -86t245.5 -234.5t88 -330.5q0 -188 -70.5 -346t-190 -263t-277 -163.5t-332.5 -58.5q-194 0 -352 84t-247 229.5t-89 322.5zM633 657q0 -131 86 -218t217 -87q99 0 190.5 57t148 153.5t56.5 203.5 q0 138 -86.5 231t-218.5 93q-99 0 -190.5 -61.5t-147 -162.5t-55.5 -209zM936 1528l203 383l434 -35l-399 -348h-238z" />
<glyph unicode="&#xd4;" horiz-adv-x="1697" d="M201 616q0 168 64.5 322t177 270t277 185t353.5 69q195 0 352.5 -86t245.5 -234.5t88 -330.5q0 -188 -70.5 -346t-190 -263t-277 -163.5t-332.5 -58.5q-194 0 -352 84t-247 229.5t-89 322.5zM633 657q0 -131 86 -218t217 -87q99 0 190.5 57t148 153.5t56.5 203.5 q0 138 -86.5 231t-218.5 93q-99 0 -190.5 -61.5t-147 -162.5t-55.5 -209zM721 1528l371 342h243l238 -342h-260l-137 164l-199 -164h-256z" />
<glyph unicode="&#xd5;" horiz-adv-x="1697" d="M201 616q0 168 64.5 322t177 270t277 185t353.5 69q195 0 352.5 -86t245.5 -234.5t88 -330.5q0 -188 -70.5 -346t-190 -263t-277 -163.5t-332.5 -58.5q-194 0 -352 84t-247 229.5t-89 322.5zM633 657q0 -131 86 -218t217 -87q99 0 190.5 57t148 153.5t56.5 203.5 q0 138 -86.5 231t-218.5 93q-99 0 -190.5 -61.5t-147 -162.5t-55.5 -209zM705 1513q33 167 124.5 265t202.5 98q54 0 116 -19.5t112 -39t75 -19.5q69 0 146 111l170 -21q-32 -159 -126 -260.5t-204 -101.5q-53 0 -115 19.5t-112.5 39t-75.5 19.5q-72 0 -141 -111z" />
<glyph unicode="&#xd6;" horiz-adv-x="1697" d="M201 616q0 168 64.5 322t177 270t277 185t353.5 69q195 0 352.5 -86t245.5 -234.5t88 -330.5q0 -188 -70.5 -346t-190 -263t-277 -163.5t-332.5 -58.5q-194 0 -352 84t-247 229.5t-89 322.5zM633 657q0 -131 86 -218t217 -87q99 0 190.5 57t148 153.5t56.5 203.5 q0 138 -86.5 231t-218.5 93q-99 0 -190.5 -61.5t-147 -162.5t-55.5 -209zM756 1655q0 85 61 142.5t139 57.5q69 0 115.5 -43.5t46.5 -109.5q0 -85 -61.5 -143t-138.5 -58q-69 0 -115.5 44t-46.5 110zM1206 1659q0 85 61 140.5t140 55.5q69 0 115.5 -43.5t46.5 -109.5 q0 -85 -61 -143t-138 -58q-70 0 -117 46t-47 112z" />
<glyph unicode="&#xd7;" horiz-adv-x="1339" d="M170 322l387 325l-262 326l287 233l260 -325l387 325l190 -233l-387 -326l262 -325l-284 -236l-262 326l-386 -326z" />
<glyph unicode="&#xd8;" horiz-adv-x="1699" d="M63 0l256 244q-118 161 -118 372q0 168 64.5 322t177 270t277 185t353.5 69q229 0 406 -119l104 101h340l-276 -262q112 -162 112 -371q0 -188 -70.5 -346t-190 -263t-277 -163.5t-332.5 -58.5q-224 0 -395 108l-91 -88h-340zM633 657q0 -59 12 -108l524 504 q-69 37 -143 37q-99 0 -190.5 -61.5t-147 -162.5t-55.5 -209zM805 379q53 -27 131 -27q99 0 190.5 57t148 153.5t56.5 203.5q0 58 -12 108z" />
<glyph unicode="&#xd9;" horiz-adv-x="1552" d="M211 494q0 69 37 260l133 690h407q-3 2 -43.5 -204t-80 -432.5t-39.5 -270.5q0 -103 54 -148t163 -45q135 0 216 78t118 266l145 756h408l-168 -864q-27 -138 -84.5 -244t-132 -173t-172 -109.5t-196.5 -59.5t-212 -17q-255 0 -404 136.5t-149 380.5zM600 1876l440 35 l131 -383h-237z" />
<glyph unicode="&#xda;" horiz-adv-x="1552" d="M211 494q0 69 37 260l133 690h407q-3 2 -43.5 -204t-80 -432.5t-39.5 -270.5q0 -103 54 -148t163 -45q135 0 216 78t118 266l145 756h408l-168 -864q-27 -138 -84.5 -244t-132 -173t-172 -109.5t-196.5 -59.5t-212 -17q-255 0 -404 136.5t-149 380.5zM895 1528l203 383 l434 -35l-399 -348h-238z" />
<glyph unicode="&#xdb;" horiz-adv-x="1552" d="M211 494q0 69 37 260l133 690h407q-3 2 -43.5 -204t-80 -432.5t-39.5 -270.5q0 -103 54 -148t163 -45q135 0 216 78t118 266l145 756h408l-168 -864q-27 -138 -84.5 -244t-132 -173t-172 -109.5t-196.5 -59.5t-212 -17q-255 0 -404 136.5t-149 380.5zM649 1528l371 342 h244l237 -342h-260l-137 164l-199 -164h-256z" />
<glyph unicode="&#xdc;" horiz-adv-x="1552" d="M211 494q0 69 37 260l133 690h407q-3 2 -43.5 -204t-80 -432.5t-39.5 -270.5q0 -103 54 -148t163 -45q135 0 216 78t118 266l145 756h408l-168 -864q-27 -138 -84.5 -244t-132 -173t-172 -109.5t-196.5 -59.5t-212 -17q-255 0 -404 136.5t-149 380.5zM686 1655 q0 85 61.5 142.5t139.5 57.5q69 0 115.5 -43.5t46.5 -109.5q0 -85 -62 -143t-139 -58q-69 0 -115.5 44t-46.5 110zM1137 1659q0 85 61 140.5t139 55.5q69 0 115.5 -43.5t46.5 -109.5q0 -85 -61 -143t-138 -58q-70 0 -116.5 45.5t-46.5 112.5z" />
<glyph unicode="&#xdd;" horiz-adv-x="1490" d="M272 1444h478l174 -524l379 524h477l-731 -959l-95 -485h-419l94 485zM883 1528l202 383l435 -35l-400 -348h-237z" />
<glyph unicode="&#xde;" horiz-adv-x="1378" d="M123 0l280 1444h418l-35 -172l197 2q241 3 377.5 -102.5t136.5 -299.5q0 -157 -59.5 -290t-161 -222.5t-236.5 -139.5t-286 -50h-183l-30 -170h-418zM637 500h172q77 0 141 45.5t97.5 112t33.5 135.5q0 73 -50 110t-140 37h-168z" />
<glyph unicode="&#xdf;" horiz-adv-x="1390" d="M29 -358l270 1386q32 163 133.5 287t241 187t295.5 63q208 0 330 -92t122 -259q0 -110 -45.5 -203t-126.5 -159q183 -92 183 -262q0 -124 -44 -228t-115.5 -173t-164.5 -117.5t-188.5 -70t-190.5 -21.5l-49 4l57 327h19q121 3 195.5 71.5t74.5 168.5q0 59 -49 89t-160 30 l57 295q68 0 115 61.5t47 128.5q0 41 -35 67.5t-94 26.5q-44 0 -80 -14.5t-57 -38t-33 -45.5t-16 -43l-287 -1466h-405z" />
<glyph unicode="&#xe0;" horiz-adv-x="1376" d="M156 414q0 139 50.5 270.5t138.5 232t217.5 161.5t277.5 61q118 0 247 -66l7 43h407l-215 -1116h-407l8 55q-147 -75 -273 -75q-205 0 -331.5 117t-126.5 317zM457 1587l440 35l131 -383h-237zM563 485q0 -77 51 -118t144 -41q106 0 196 65l64 334q-69 66 -170 66 q-120 0 -202.5 -93.5t-82.5 -212.5z" />
<glyph unicode="&#xe1;" horiz-adv-x="1376" d="M156 414q0 139 50.5 270.5t138.5 232t217.5 161.5t277.5 61q118 0 247 -66l7 43h407l-215 -1116h-407l8 55q-147 -75 -273 -75q-205 0 -331.5 117t-126.5 317zM563 485q0 -77 51 -118t144 -41q106 0 196 65l64 334q-69 66 -170 66q-120 0 -202.5 -93.5t-82.5 -212.5z M715 1239l203 383l434 -35l-400 -348h-237z" />
<glyph unicode="&#xe2;" horiz-adv-x="1376" d="M156 414q0 139 50.5 270.5t138.5 232t217.5 161.5t277.5 61q118 0 247 -66l7 43h407l-215 -1116h-407l8 55q-147 -75 -273 -75q-205 0 -331.5 117t-126.5 317zM500 1239l370 342h244l238 -342h-260l-138 164l-198 -164h-256zM563 485q0 -77 51 -118t144 -41q106 0 196 65 l64 334q-69 66 -170 66q-120 0 -202.5 -93.5t-82.5 -212.5z" />
<glyph unicode="&#xe3;" horiz-adv-x="1376" d="M156 414q0 139 50.5 270.5t138.5 232t217.5 161.5t277.5 61q118 0 247 -66l7 43h407l-215 -1116h-407l8 55q-147 -75 -273 -75q-205 0 -331.5 117t-126.5 317zM485 1225q33 167 125 264.5t203 97.5q54 0 116 -19.5t112 -39t75 -19.5q69 0 146 111l170 -21 q-32 -159 -126 -260.5t-204 -101.5q-53 0 -115 19.5t-112.5 39t-75.5 19.5q-73 0 -142 -111zM563 485q0 -77 51 -118t144 -41q106 0 196 65l64 334q-69 66 -170 66q-120 0 -202.5 -93.5t-82.5 -212.5z" />
<glyph unicode="&#xe4;" horiz-adv-x="1376" d="M156 414q0 139 50.5 270.5t138.5 232t217.5 161.5t277.5 61q118 0 247 -66l7 43h407l-215 -1116h-407l8 55q-147 -75 -273 -75q-205 0 -331.5 117t-126.5 317zM537 1366q0 85 61 143t139 58q69 0 115.5 -44t46.5 -110q0 -85 -62 -143t-139 -58q-69 0 -115 44t-46 110z M563 485q0 -77 51 -118t144 -41q106 0 196 65l64 334q-69 66 -170 66q-120 0 -202.5 -93.5t-82.5 -212.5zM987 1370q0 85 61.5 141t139.5 56q69 0 115.5 -44t46.5 -110q0 -85 -61 -143t-138 -58q-70 0 -117 46t-47 112z" />
<glyph unicode="&#xe5;" horiz-adv-x="1376" d="M156 414q0 139 50.5 270.5t138.5 232t217.5 161.5t277.5 61q118 0 247 -66l7 43h407l-215 -1116h-407l8 55q-147 -75 -273 -75q-205 0 -331.5 117t-126.5 317zM563 485q0 -77 51 -118t144 -41q106 0 196 65l64 334q-69 66 -170 66q-120 0 -202.5 -93.5t-82.5 -212.5z M688 1462q0 115 81.5 193t188.5 78q102 0 172 -69t70 -169q0 -116 -83 -194t-191 -78q-102 0 -170 69t-68 170zM821 1460q0 -40 29.5 -70t71.5 -30q54 0 93.5 37.5t39.5 95.5q0 40 -30.5 70t-70.5 30q-54 0 -93.5 -37.5t-39.5 -95.5z" />
<glyph unicode="&#xe6;" horiz-adv-x="2213" d="M162 408q0 113 33.5 222t95.5 199.5t144.5 160t187.5 108.5t217 39q127 0 252 -64l6 43h407l-12 -57q153 78 330 78q144 0 246.5 -61.5t151 -161.5t48.5 -228q0 -81 -37 -237h-712q11 -77 61 -122.5t139 -45.5q110 0 224 141l213 -205q-54 -60 -101.5 -99t-112.5 -73 t-149.5 -49.5t-194.5 -15.5q-180 0 -299 83v-2l-10 -61h-407l10 55q-156 -78 -272 -78q-204 0 -331.5 116.5t-127.5 314.5zM569 487q0 -163 207 -163q49 0 88.5 16t93.5 51l64 334q-72 66 -170 66q-121 0 -202 -94t-81 -210zM1565 674h331q2 10 2 28q0 59 -38.5 94t-96.5 35 q-59 0 -116 -46t-82 -111z" />
<glyph unicode="&#xe7;" horiz-adv-x="1163" d="M152 442q0 81 22 164q32 111 87 200.5t124 150.5t152 102t170.5 59.5t181.5 18.5q139 0 244.5 -63.5t160.5 -174.5l-303 -231q-19 57 -63.5 90t-106.5 33q-109 0 -186.5 -89t-77.5 -206q0 -73 49 -121.5t125 -48.5q62 0 120.5 33.5t98.5 89.5l209 -230 q-143 -162 -330 -217h2l-65 -108q20 -29 20 -70q0 -97 -106 -155t-330 -58h-43v127q33 0 54 0.5t50.5 2t47.5 5.5t36 10.5t26.5 16.5t8.5 24q0 20 -35.5 30.5t-91.5 10.5l172 148q-193 26 -308 151.5t-115 304.5z" />
<glyph unicode="&#xe8;" horiz-adv-x="1234" d="M152 428q0 140 50.5 269t140.5 226.5t222.5 155.5t286.5 58q144 0 246.5 -61.5t151 -161.5t48.5 -228q0 -85 -36 -237h-713q11 -76 61 -122t140 -46q109 0 223 141l213 -205q-55 -60 -101.5 -99t-112 -73t-149.5 -49.5t-194 -15.5q-222 0 -349.5 125.5t-127.5 322.5z M403 1587l441 35l131 -383h-238zM594 674h332q2 10 2 28q0 59 -38.5 94t-96.5 35q-59 0 -116.5 -46t-82.5 -111z" />
<glyph unicode="&#xe9;" horiz-adv-x="1234" d="M152 428q0 140 50.5 269t140.5 226.5t222.5 155.5t286.5 58q144 0 246.5 -61.5t151 -161.5t48.5 -228q0 -85 -36 -237h-713q11 -76 61 -122t140 -46q109 0 223 141l213 -205q-55 -60 -101.5 -99t-112 -73t-149.5 -49.5t-194 -15.5q-222 0 -349.5 125.5t-127.5 322.5z M594 674h332q2 10 2 28q0 59 -38.5 94t-96.5 35q-59 0 -116.5 -46t-82.5 -111zM727 1239l203 383l434 -35l-399 -348h-238z" />
<glyph unicode="&#xea;" horiz-adv-x="1234" d="M152 428q0 140 50.5 269t140.5 226.5t222.5 155.5t286.5 58q144 0 246.5 -61.5t151 -161.5t48.5 -228q0 -85 -36 -237h-713q11 -76 61 -122t140 -46q109 0 223 141l213 -205q-55 -60 -101.5 -99t-112 -73t-149.5 -49.5t-194 -15.5q-222 0 -349.5 125.5t-127.5 322.5z M449 1239l370 342h244l237 -342h-260l-137 164l-198 -164h-256zM594 674h332q2 10 2 28q0 59 -38.5 94t-96.5 35q-59 0 -116.5 -46t-82.5 -111z" />
<glyph unicode="&#xeb;" horiz-adv-x="1234" d="M152 428q0 140 50.5 269t140.5 226.5t222.5 155.5t286.5 58q144 0 246.5 -61.5t151 -161.5t48.5 -228q0 -85 -36 -237h-713q11 -76 61 -122t140 -46q109 0 223 141l213 -205q-55 -60 -101.5 -99t-112 -73t-149.5 -49.5t-194 -15.5q-222 0 -349.5 125.5t-127.5 322.5z M485 1366q0 85 61.5 143t139.5 58q69 0 115.5 -44t46.5 -110q0 -85 -62 -143t-139 -58q-69 0 -115.5 44t-46.5 110zM594 674h332q2 10 2 28q0 59 -38.5 94t-96.5 35q-59 0 -116.5 -46t-82.5 -111zM936 1370q0 85 61.5 141t139.5 56q69 0 115 -44t46 -110q0 -85 -60.5 -143 t-137.5 -58q-70 0 -117 46t-47 112z" />
<glyph unicode="&#xec;" horiz-adv-x="626" d="M82 1567l440 35l131 -383h-237zM109 0l215 1118h407l-215 -1118h-407z" />
<glyph unicode="&#xed;" horiz-adv-x="626" d="M109 0l215 1118h407l-215 -1118h-407zM416 1219l202 383l435 -35l-400 -348h-237z" />
<glyph unicode="&#xee;" horiz-adv-x="626" d="M109 0l215 1118h407l-215 -1118h-407zM129 1219l371 342h243l238 -342h-260l-137 163l-199 -163h-256z" />
<glyph unicode="&#xef;" horiz-adv-x="626" d="M109 0l215 1118h407l-215 -1118h-407zM166 1346q0 85 61.5 142.5t139.5 57.5q69 0 115 -43.5t46 -109.5q0 -85 -61.5 -143t-138.5 -58q-69 0 -115.5 44t-46.5 110zM616 1350q0 85 61 140.5t140 55.5q69 0 115.5 -43.5t46.5 -109.5q0 -85 -61 -143t-138 -58q-70 0 -117 46 t-47 112z" />
<glyph unicode="&#xf0;" horiz-adv-x="1320" d="M125 418q0 118 46 227.5t127.5 194t204 135.5t265.5 51l96 -8l-53 102l-303 -96l-100 188l297 101l-130 231h435q32 -54 61 -114l236 75l96 -190l-219 -74q92 -155 141 -291t49 -272q0 -141 -64.5 -272t-167.5 -223.5t-235.5 -147.5t-265.5 -55q-225 0 -370.5 125 t-145.5 313zM522 473q0 -71 51 -118.5t132 -47.5q100 0 183 88.5t83 186.5q0 71 -52 117t-131 46q-97 0 -181.5 -87t-84.5 -185z" />
<glyph unicode="&#xf1;" horiz-adv-x="1298" d="M100 0l215 1118h408l-8 -41q123 60 229 60q214 0 306.5 -74.5t92.5 -245.5q0 -95 -22 -205l-119 -612h-407l118 612q9 44 9 74q0 55 -27 80t-92 25q-85 0 -154 -56l-141 -735h-408zM436 1204q33 167 125 265t203 98q54 0 116 -19.5t112 -39t75 -19.5q69 0 145 110 l170 -20q-32 -159 -125.5 -260.5t-203.5 -101.5q-53 0 -115 19.5t-112.5 38.5t-75.5 19q-74 0 -142 -110z" />
<glyph unicode="&#xf2;" horiz-adv-x="1339" d="M150 455q0 142 49.5 266t140 216.5t227.5 146t303 53.5q110 0 208 -38t168 -102t110.5 -151.5t40.5 -183.5q0 -135 -40.5 -249t-109.5 -192.5t-161.5 -133.5t-195.5 -81t-212 -26q-148 0 -270 64.5t-190 173t-68 237.5zM434 1567l440 35l132 -383h-238zM553 504 q0 -74 50 -126t126 -52q110 0 187 80.5t77 191.5q0 86 -48 139.5t-126 53.5q-101 0 -183.5 -93t-82.5 -194z" />
<glyph unicode="&#xf3;" horiz-adv-x="1339" d="M150 455q0 142 49.5 266t140 216.5t227.5 146t303 53.5q110 0 208 -38t168 -102t110.5 -151.5t40.5 -183.5q0 -135 -40.5 -249t-109.5 -192.5t-161.5 -133.5t-195.5 -81t-212 -26q-148 0 -270 64.5t-190 173t-68 237.5zM553 504q0 -74 50 -126t126 -52q110 0 187 80.5 t77 191.5q0 86 -48 139.5t-126 53.5q-101 0 -183.5 -93t-82.5 -194zM754 1219l202 383l435 -35l-400 -348h-237z" />
<glyph unicode="&#xf4;" horiz-adv-x="1339" d="M150 455q0 142 49.5 266t140 216.5t227.5 146t303 53.5q110 0 208 -38t168 -102t110.5 -151.5t40.5 -183.5q0 -135 -40.5 -249t-109.5 -192.5t-161.5 -133.5t-195.5 -81t-212 -26q-148 0 -270 64.5t-190 173t-68 237.5zM479 1219l371 342h244l237 -342h-260l-137 163 l-199 -163h-256zM553 504q0 -74 50 -126t126 -52q110 0 187 80.5t77 191.5q0 86 -48 139.5t-126 53.5q-101 0 -183.5 -93t-82.5 -194z" />
<glyph unicode="&#xf5;" horiz-adv-x="1339" d="M150 455q0 142 49.5 266t140 216.5t227.5 146t303 53.5q110 0 208 -38t168 -102t110.5 -151.5t40.5 -183.5q0 -135 -40.5 -249t-109.5 -192.5t-161.5 -133.5t-195.5 -81t-212 -26q-148 0 -270 64.5t-190 173t-68 237.5zM465 1204q33 167 125 265t203 98q54 0 116 -19.5 t112 -39t75 -19.5q69 0 145 110l170 -20q-32 -159 -126 -260.5t-204 -101.5q-53 0 -115 19.5t-112.5 38.5t-75.5 19q-73 0 -141 -110zM553 504q0 -74 50 -126t126 -52q110 0 187 80.5t77 191.5q0 86 -48 139.5t-126 53.5q-101 0 -183.5 -93t-82.5 -194z" />
<glyph unicode="&#xf6;" horiz-adv-x="1339" d="M150 455q0 142 49.5 266t140 216.5t227.5 146t303 53.5q110 0 208 -38t168 -102t110.5 -151.5t40.5 -183.5q0 -135 -40.5 -249t-109.5 -192.5t-161.5 -133.5t-195.5 -81t-212 -26q-148 0 -270 64.5t-190 173t-68 237.5zM516 1346q0 85 61.5 142.5t139.5 57.5 q69 0 115.5 -43.5t46.5 -109.5q0 -85 -62 -143t-139 -58q-69 0 -115.5 44t-46.5 110zM553 504q0 -74 50 -126t126 -52q110 0 187 80.5t77 191.5q0 86 -48 139.5t-126 53.5q-101 0 -183.5 -93t-82.5 -194zM967 1350q0 85 61 140.5t139 55.5q69 0 115.5 -43.5t46.5 -109.5 q0 -85 -61 -143t-138 -58q-70 0 -116.5 45.5t-46.5 112.5z" />
<glyph unicode="&#xf7;" horiz-adv-x="1077" d="M180 518l66 332h919l-65 -332h-920zM369 199q0 90 63.5 150.5t149.5 60.5q77 0 130.5 -53.5t53.5 -129.5q0 -91 -64 -152t-149 -61q-78 0 -131 54t-53 131zM549 1145q0 90 63.5 149.5t147.5 59.5q78 0 132 -53t54 -130q0 -91 -64 -150.5t-149 -59.5q-79 0 -131.5 53.5 t-52.5 130.5z" />
<glyph unicode="&#xf8;" horiz-adv-x="1341" d="M35 0l203 186q-88 125 -88 269q0 142 49.5 266t140 216.5t227.5 146t303 53.5q175 0 308 -88l73 69h287l-221 -200q80 -119 80 -256q0 -135 -40.5 -249t-109.5 -192.5t-161.5 -133.5t-195.5 -81t-212 -26q-167 0 -297 79l-62 -59h-284zM553 471l330 309q-37 11 -64 11 q-104 0 -185 -92t-81 -195v-33zM682 330q16 -4 47 -4q90 0 160.5 57.5t95.5 144.5q12 56 12 99z" />
<glyph unicode="&#xf9;" horiz-adv-x="1296" d="M154 311q0 24 38.5 226t77.5 391l39 190h408q-8 -45 -42.5 -223.5t-61.5 -322.5t-27 -154q0 -50 29 -71t96 -21q46 0 87.5 22.5t63.5 52.5l142 717h407l-215 -1118h-408l9 39q-92 -62 -224 -62q-217 0 -318 82.5t-101 251.5zM412 1567l440 35l131 -383h-238z" />
<glyph unicode="&#xfa;" horiz-adv-x="1296" d="M154 311q0 24 38.5 226t77.5 391l39 190h408q-8 -45 -42.5 -223.5t-61.5 -322.5t-27 -154q0 -50 29 -71t96 -21q46 0 87.5 22.5t63.5 52.5l142 717h407l-215 -1118h-408l9 39q-92 -62 -224 -62q-217 0 -318 82.5t-101 251.5zM756 1219l202 383l435 -35l-400 -348h-237z " />
<glyph unicode="&#xfb;" horiz-adv-x="1296" d="M154 311q0 24 38.5 226t77.5 391l39 190h408q-8 -45 -42.5 -223.5t-61.5 -322.5t-27 -154q0 -50 29 -71t96 -21q46 0 87.5 22.5t63.5 52.5l142 717h407l-215 -1118h-408l9 39q-92 -62 -224 -62q-217 0 -318 82.5t-101 251.5zM459 1219l370 342h244l238 -342h-260 l-138 163l-198 -163h-256z" />
<glyph unicode="&#xfc;" horiz-adv-x="1296" d="M154 311q0 24 38.5 226t77.5 391l39 190h408q-8 -45 -42.5 -223.5t-61.5 -322.5t-27 -154q0 -50 29 -71t96 -21q46 0 87.5 22.5t63.5 52.5l142 717h407l-215 -1118h-408l9 39q-92 -62 -224 -62q-217 0 -318 82.5t-101 251.5zM496 1346q0 85 61 142.5t139 57.5 q69 0 115.5 -43.5t46.5 -109.5q0 -85 -62 -143t-139 -58q-69 0 -115 44t-46 110zM946 1350q0 85 61 140.5t140 55.5q69 0 115.5 -43.5t46.5 -109.5q0 -85 -61 -143t-138 -58q-70 0 -117 46t-47 112z" />
<glyph unicode="&#xfd;" horiz-adv-x="1290" d="M16 -313l131 280q77 -23 109 -31.5t101.5 -21t129.5 -12.5q109 0 180 32t117 101q-81 -55 -223 -55q-216 0 -315 82t-99 251q0 26 39 227.5t78 389.5l39 188h408q-150 -652 -150 -715q0 -45 30.5 -61t113.5 -16q103 0 151 75l141 717h408l-168 -872q-17 -87 -29.5 -140.5 t-38.5 -129t-57.5 -121.5t-84 -98t-119.5 -80.5t-163 -48t-215 -19.5q-54 0 -99.5 1.5t-76.5 2.5t-69.5 7t-53.5 7.5t-54 12t-46.5 12.5t-56 17t-58.5 18zM727 1219l203 383l434 -35l-399 -348h-238z" />
<glyph unicode="&#xfe;" horiz-adv-x="1384" d="M29 -358l370 1902h408l-90 -465q141 58 268 58q208 0 334.5 -114.5t126.5 -317.5q0 -187 -90.5 -353.5t-249 -269t-344.5 -102.5q-127 0 -250 57l-76 -395h-407zM584 391q68 -65 170 -65q117 0 200.5 88t83.5 204q0 78 -51.5 125.5t-142.5 47.5q-105 0 -197 -66z" />
<glyph unicode="&#xff;" horiz-adv-x="1290" d="M16 -313l131 280q77 -23 109 -31.5t101.5 -21t129.5 -12.5q109 0 180 32t117 101q-81 -55 -223 -55q-216 0 -315 82t-99 251q0 26 39 227.5t78 389.5l39 188h408q-150 -652 -150 -715q0 -45 30.5 -61t113.5 -16q103 0 151 75l141 717h408l-168 -872q-17 -87 -29.5 -140.5 t-38.5 -129t-57.5 -121.5t-84 -98t-119.5 -80.5t-163 -48t-215 -19.5q-54 0 -99.5 1.5t-76.5 2.5t-69.5 7t-53.5 7.5t-54 12t-46.5 12.5t-56 17t-58.5 18zM487 1346q0 85 61.5 142.5t139.5 57.5q69 0 115.5 -43.5t46.5 -109.5q0 -85 -62 -143t-139 -58q-69 0 -115.5 44 t-46.5 110zM938 1350q0 85 61 140.5t140 55.5q69 0 115 -43.5t46 -109.5q0 -85 -60.5 -143t-137.5 -58q-70 0 -117 46t-47 112z" />
<glyph unicode="&#x152;" horiz-adv-x="2203" d="M201 567q0 129 35.5 254t108.5 238t175.5 198.5t247.5 136t313 50.5h1289l-70 -342h-723l-45 -236h598l-66 -331h-596l-36 -193h766l-66 -342h-1354q-160 0 -293 77t-208.5 207t-75.5 283zM618 618q0 -266 322 -266h86l141 740h-149q-106 0 -200 -73.5t-147 -182.5 t-53 -218z" />
<glyph unicode="&#x153;" horiz-adv-x="2048" d="M152 455q0 141 49.5 265t139.5 216.5t227 146.5t302 54q216 0 375 -136q183 136 420 136q144 0 246.5 -61.5t151 -161.5t48.5 -228q0 -85 -36 -237h-713q11 -76 61 -122t140 -46q109 0 223 141l213 -205q-55 -60 -101.5 -99t-112 -73t-149.5 -49.5t-194 -15.5 q-215 0 -340 116q-189 -116 -424 -116q-223 0 -374.5 139t-151.5 336zM553 504q0 -74 50 -126t126 -52q108 0 177 80t69 192q0 87 -49 140t-115 53q-104 0 -181 -85.5t-77 -201.5zM1407 674h332q2 10 2 28q0 59 -38.5 94t-96.5 35q-59 0 -116.5 -46t-82.5 -111z" />
<glyph unicode="&#x178;" horiz-adv-x="1490" d="M272 1444h478l174 -524l379 524h477l-731 -959l-95 -485h-419l94 485zM655 1655q0 85 61.5 142.5t139.5 57.5q69 0 115.5 -43.5t46.5 -109.5q0 -85 -62 -143t-139 -58q-69 0 -115.5 44t-46.5 110zM1106 1659q0 85 61 140.5t140 55.5q69 0 115 -43.5t46 -109.5 q0 -85 -60.5 -143t-137.5 -58q-70 0 -117 46t-47 112z" />
<glyph unicode="&#x2c6;" horiz-adv-x="1024" d="M381 1528l371 342h243l238 -342h-260l-137 164l-199 -164h-256z" />
<glyph unicode="&#x2dc;" horiz-adv-x="1024" d="M362 1513q33 167 125 265t203 98q54 0 116 -19.5t112 -39t75 -19.5q69 0 146 111l170 -21q-32 -159 -126 -260.5t-204 -101.5q-53 0 -115 19.5t-112.5 39t-75.5 19.5q-72 0 -141 -111z" />
<glyph unicode="&#x2000;" horiz-adv-x="968" />
<glyph unicode="&#x2001;" horiz-adv-x="1937" />
<glyph unicode="&#x2002;" horiz-adv-x="968" />
<glyph unicode="&#x2003;" horiz-adv-x="1937" />
<glyph unicode="&#x2004;" horiz-adv-x="645" />
<glyph unicode="&#x2005;" horiz-adv-x="484" />
<glyph unicode="&#x2006;" horiz-adv-x="322" />
<glyph unicode="&#x2007;" horiz-adv-x="322" />
<glyph unicode="&#x2008;" horiz-adv-x="242" />
<glyph unicode="&#x2009;" horiz-adv-x="387" />
<glyph unicode="&#x200a;" horiz-adv-x="107" />
<glyph unicode="&#x2010;" horiz-adv-x="835" d="M180 516l64 332h674l-64 -332h-674z" />
<glyph unicode="&#x2011;" horiz-adv-x="835" d="M180 516l64 332h674l-64 -332h-674z" />
<glyph unicode="&#x2012;" horiz-adv-x="835" d="M180 516l64 332h674l-64 -332h-674z" />
<glyph unicode="&#x2013;" horiz-adv-x="1081" d="M178 516l64 332h919l-63 -332h-920z" />
<glyph unicode="&#x2014;" horiz-adv-x="1839" d="M180 516l64 332h1677l-63 -332h-1678z" />
<glyph unicode="&#x2018;" horiz-adv-x="595" d="M274 965q0 218 135 347t341 132l24 -154q-67 0 -112 -12.5t-65.5 -31t-33.5 -46.5q59 -12 94 -55.5t35 -106.5q0 -97 -78 -170t-174 -73q-77 0 -121.5 43t-44.5 127z" />
<glyph unicode="&#x2019;" horiz-adv-x="598" d="M244 950q98 0 144 23t67 67q-60 14 -95.5 57.5t-35.5 104.5q0 97 78 170.5t173 73.5q75 0 120.5 -43t45.5 -125q0 -219 -133 -348.5t-340 -132.5z" />
<glyph unicode="&#x201a;" horiz-adv-x="593" d="M27 -90q98 0 144 23t67 67q-60 12 -96 55.5t-36 106.5q0 97 78 170.5t174 73.5q75 0 120.5 -43t45.5 -125q0 -219 -133.5 -349t-339.5 -133z" />
<glyph unicode="&#x201c;" horiz-adv-x="1150" d="M274 958q0 68 15.5 132.5t51.5 126.5t89.5 109t136.5 77t185 33l22 -154q-97 0 -143.5 -23.5t-65.5 -66.5q57 -14 92 -57t35 -103q0 -97 -76 -171.5t-172 -74.5q-78 0 -124 44t-46 128zM838 958q0 68 15 132.5t50.5 126.5t89 109t136 77t184.5 33l24 -154 q-67 0 -112 -12.5t-65.5 -31t-33.5 -46.5q59 -14 94 -57t35 -103q0 -97 -76.5 -171.5t-172.5 -74.5q-77 0 -122.5 44t-45.5 128z" />
<glyph unicode="&#x201d;" horiz-adv-x="1153" d="M250 950q98 0 144 23t67 67q-60 14 -95.5 57.5t-35.5 104.5q0 97 78 170.5t174 73.5q75 0 120.5 -43t45.5 -125q0 -219 -133.5 -348.5t-340.5 -132.5zM813 950q96 0 142 23t67 67q-59 14 -94 57.5t-35 104.5q0 97 77.5 170.5t172.5 73.5q76 0 122 -43t46 -125 q0 -146 -63 -255.5t-170 -166.5t-242 -59z" />
<glyph unicode="&#x201e;" horiz-adv-x="1114" d="M29 -90q98 0 144 23t67 67q-60 12 -95.5 55.5t-35.5 106.5q0 97 77.5 170.5t171.5 73.5q76 0 122 -43t46 -125q0 -219 -133.5 -349t-339.5 -133zM590 -90q98 0 144 23t67 67q-60 12 -95.5 55.5t-35.5 106.5q0 97 78 170.5t174 73.5q76 0 120.5 -43t44.5 -125 q0 -219 -133.5 -349t-339.5 -133z" />
<glyph unicode="&#x2022;" horiz-adv-x="1040" d="M348 702q0 134 98 226t226 92q120 0 200 -79t80 -198q0 -138 -95.5 -229.5t-225.5 -91.5q-121 0 -202 80.5t-81 199.5z" />
<glyph unicode="&#x2026;" horiz-adv-x="1765" d="M115 184q0 99 70.5 166.5t164.5 67.5q89 0 148 -58t59 -145q0 -101 -71.5 -168t-166.5 -67q-87 0 -145.5 58.5t-58.5 145.5zM702 184q0 99 70.5 166.5t165.5 67.5q88 0 147.5 -58.5t59.5 -144.5q0 -101 -71.5 -168t-166.5 -67q-87 0 -146 59t-59 145zM1288 184 q0 99 71.5 166.5t164.5 67.5q89 0 149 -58.5t60 -144.5q0 -101 -72 -168t-166 -67q-89 0 -148 58.5t-59 145.5z" />
<glyph unicode="&#x202f;" horiz-adv-x="387" />
<glyph unicode="&#x2039;" horiz-adv-x="739" d="M166 545l465 532l221 -188l-328 -344l197 -342l-297 -191z" />
<glyph unicode="&#x203a;" horiz-adv-x="743" d="M100 203l328 342l-197 344l299 188l256 -532l-462 -533z" />
<glyph unicode="&#x205f;" horiz-adv-x="484" />
<glyph unicode="&#x20ac;" horiz-adv-x="1441" d="M156 489l20 179h146v6q1 7 2 19t2.5 25.5t3.5 28.5t4 25h-146l23 180h170q89 242 278 376t422 134q162 0 291.5 -70t204.5 -200l-313 -238q-43 66 -66 87q-56 51 -166 51q-54 0 -107.5 -37.5t-95.5 -102.5h267l-21 -180h-319q-13 -43 -13 -104h320l-21 -179h-268 q28 -65 73.5 -101t100.5 -36q54 0 93 8.5t72 31.5t48.5 38.5t50.5 54.5l252 -235q-104 -132 -251 -201t-312 -69q-231 0 -388 133.5t-187 375.5h-170z" />
<glyph unicode="&#x2122;" horiz-adv-x="1423" d="M281 1286l28 146h555l-28 -146h-185l-94 -493h-184l96 493h-188zM842 793l123 639h88l188 -318l309 318h88l-122 -639h-185l49 254l-190 -195l-117 195l-47 -254h-184z" />
<glyph unicode="&#x25fc;" horiz-adv-x="1116" d="M0 0v1116h1116v-1116h-1116z" />
</font>
</defs>
</svg>
